<svg width="68" height="10" viewBox="0 0 68 10" fill="none" xmlns="http://www.w3.org/2000/svg">
<path d="M63.7307 9.35002H3.38787C2.48897 9.34849 1.62728 8.85527 0.992048 7.9787C0.35682 7.10213 0 5.9139 0 4.67501C0 3.43612 0.35682 2.24788 0.992048 1.37131C1.62728 0.494742 2.48897 0.00153246 3.38787 3.56041e-06H63.7307C64.1765 -0.000754682 64.618 0.119603 65.0301 0.354205C65.4421 0.588807 65.8166 0.933046 66.132 1.36724C66.4474 1.80143 66.6976 2.31705 66.8683 2.88462C67.0391 3.4522 67.127 4.06059 67.127 4.67501C67.127 5.28943 67.0391 5.89781 66.8683 6.46539C66.6976 7.03296 66.4474 7.54859 66.132 7.98278C65.8166 8.41697 65.4421 8.76121 65.0301 8.99582C64.618 9.23042 64.1765 9.35078 63.7307 9.35002V9.35002Z" fill="#CCCCCC"/>
</svg>
