<svg width="26" height="49" viewBox="0 0 26 49" fill="none" xmlns="http://www.w3.org/2000/svg">
<path d="M3.99823 49C3.22784 49.0012 2.47445 48.7443 1.83354 48.2617C1.19263 47.7792 0.693046 47.0927 0.398073 46.2893C0.103099 45.4859 0.0260338 44.6017 0.176619 43.7488C0.327203 42.8959 0.698661 42.1126 1.24395 41.4983L14.5969 26.4241C15.0152 25.9507 15.2501 25.3095 15.2501 24.6409C15.2501 23.9723 15.0152 23.331 14.5969 22.8577L1.17112 7.70111C0.799823 7.28196 0.505283 6.78436 0.304342 6.23671C0.103401 5.68906 -7.28896e-06 5.1021 3.85348e-10 4.50933C7.28973e-06 3.91656 0.103438 3.3296 0.304392 2.78196C0.505347 2.23432 0.799888 1.73673 1.1712 1.31759C1.91923 0.477224 2.93065 0.00377722 3.98597 2.25033e-05C5.04129 -0.00373221 6.05535 0.462508 6.80806 1.29754L24.8757 21.4389C25.2319 21.8359 25.5146 22.3088 25.7076 22.8302C25.9006 23.3515 26 23.9109 26 24.476C26 25.041 25.9006 25.6004 25.7076 26.1218C25.5146 26.6431 25.2319 27.116 24.8757 27.513L6.73473 47.736C6.0059 48.5482 5.02236 49.0025 3.99823 49Z" fill="#415078"/>
</svg>
