<svg width="28" height="7" viewBox="0 0 28 7" fill="none" xmlns="http://www.w3.org/2000/svg">
<path d="M24.0256 7H3.96943C2.91667 7 1.90703 6.63126 1.16261 5.97488C0.418197 5.3185 0 4.42824 0 3.49998C0 2.57173 0.418197 1.6815 1.16261 1.02512C1.90703 0.368741 2.91667 2.66531e-06 3.96943 2.66531e-06H24.0256C24.5473 -0.000565001 25.064 0.0895505 25.5462 0.265188C26.0283 0.440825 26.4665 0.698528 26.8356 1.02359C27.2047 1.34865 27.4976 1.73469 27.6974 2.15961C27.8972 2.58453 28 3.03999 28 3.49998C28 3.95997 27.8972 4.41547 27.6974 4.84039C27.4976 5.26531 27.2047 5.65135 26.8356 5.97641C26.4665 6.30147 26.0283 6.55918 25.5462 6.73481C25.064 6.91045 24.5473 7.00056 24.0256 7Z" fill="#CCCCCC"/>
</svg>
