<svg width="300" height="152" viewBox="0 0 300 152" fill="none" xmlns="http://www.w3.org/2000/svg">
<g clip-path="url(#clip0)">
<path d="M299.363 110.337C297.791 119.934 292.923 129.25 284.888 135.146C276.98 140.952 266.849 143.015 257.069 144.788C245.34 146.918 233.578 148.864 221.784 150.628C220.112 150.884 218.439 151.131 216.764 151.37H148.069C148 151.281 147.926 151.188 147.857 151.095C147.745 150.939 147.633 150.784 147.525 150.628C147.463 150.539 147.401 150.446 147.34 150.353H190.428C191.651 150.352 192.823 149.885 193.688 149.055C194.553 148.224 195.04 147.098 195.042 145.923V90.6584C195.32 89.8199 195.579 88.9778 195.815 88.1245C196.913 84.151 197.628 80.0886 197.95 75.9889C198.181 73.1321 198.251 70.2754 198.201 67.4149C198.058 59.5533 196.988 51.6917 195.826 43.8857C195.741 43.3106 195.652 42.7319 195.567 42.1568C194.749 36.7327 194.004 30.83 196.849 26.0774C200.104 20.6385 207.328 18.3716 213.834 18.9281C225.537 19.9336 235.394 28.5446 240.517 38.7065C245.637 48.8646 246.784 60.4177 247.251 71.6963C247.498 77.6769 247.471 83.9247 246.602 89.9238C249.536 83.4758 252.473 77.0277 255.413 70.5796C256.981 67.1404 258.629 63.5898 261.533 61.0744C267.602 55.8098 277.641 56.8709 284.123 61.6643C290.602 66.4614 294.154 74.0411 296.517 81.5614C299.444 90.8624 300.938 100.739 299.363 110.337Z" fill="#F2F2F2"/>
<path d="M273.474 58.2057C277.718 65.4285 279.665 73.7108 279.619 81.9759C279.553 90.1704 277.666 98.2569 274.085 105.694C270.846 112.41 266.333 118.486 260.778 123.613C255.295 128.729 248.789 132.722 241.654 135.352C233.374 138.334 224.419 139.151 215.703 137.721C214.493 137.521 213.291 137.279 212.098 136.994C211.374 136.823 211.065 137.896 211.79 138.068C220.859 140.228 230.371 139.965 239.296 137.307C246.73 135.009 253.59 131.26 259.444 126.294C265.371 121.314 270.273 115.31 273.894 108.592C277.857 101.237 280.169 93.1655 280.68 84.8984C281.186 76.5093 279.722 67.9708 275.947 60.3609C275.489 59.4387 274.998 58.5331 274.474 57.6439C274.394 57.5218 274.267 57.4345 274.121 57.4003C273.975 57.366 273.821 57.3876 273.692 57.4605C273.562 57.5334 273.467 57.6518 273.426 57.7908C273.385 57.9299 273.403 58.0786 273.474 58.2057H273.474Z" fill="white"/>
<path d="M212.003 18.7809C216.709 27.1163 220.376 35.9556 222.929 45.1159C228.039 63.4625 228.808 82.6758 225.181 101.346C223.37 110.673 220.416 119.763 216.382 128.423C212.359 137.011 206.567 146.059 196.675 149.066C195.558 149.404 194.414 149.65 193.254 149.801C192.519 149.898 192.832 150.971 193.562 150.874C203.795 149.525 210.906 141.355 215.366 133.028C219.98 124.411 223.266 115.054 225.451 105.607C229.781 86.757 229.625 67.2108 224.995 48.4269C222.695 39.0694 219.257 30.0044 214.752 21.4189C214.186 20.3437 213.603 19.2771 213.003 18.2191C212.647 17.5897 211.646 18.1509 212.003 18.7809V18.7809Z" fill="white"/>
<path d="M163.568 17.1622H94.2239C92.8165 17.164 91.4672 17.702 90.472 18.6583C89.4768 19.6146 88.9169 20.9111 88.915 22.2636V55.6504H99.5869C100.367 55.6483 101.136 55.8378 101.819 56.2007C102.502 56.5636 103.077 57.088 103.49 57.7243L107.189 63.3822L110.726 68.7877L111.39 69.8042L115.436 75.9889L115.483 76.0594H168.876V22.2635C168.875 20.9111 168.315 19.6146 167.319 18.6583C166.324 17.702 164.975 17.164 163.568 17.1622Z" fill="#CCCCCC"/>
<path d="M136.081 27.3685H101.722C100.811 27.3685 99.9376 27.7162 99.2935 28.3351C98.6494 28.954 98.2876 29.7934 98.2876 30.6686C98.2876 31.5439 98.6494 32.3833 99.2935 33.0022C99.9376 33.621 100.811 33.9687 101.722 33.9687H136.081C136.992 33.9687 137.865 33.621 138.51 33.0022C139.154 32.3833 139.515 31.5439 139.515 30.6686C139.515 29.7934 139.154 28.954 138.51 28.3351C137.865 27.7162 136.992 27.3685 136.081 27.3685Z" fill="white"/>
<path d="M155.135 43.5741H102.035C101.04 43.5741 100.087 43.9536 99.3837 44.6292C98.6806 45.3048 98.2856 46.2211 98.2856 47.1766C98.2856 48.132 98.6806 49.0483 99.3837 49.7239C100.087 50.3995 101.04 50.779 102.035 50.779H155.135C156.129 50.779 157.083 50.3995 157.786 49.7239C158.489 49.0483 158.884 48.132 158.884 47.1766C158.884 46.2211 158.489 45.3048 157.786 44.6292C157.083 43.9536 156.129 43.5741 155.135 43.5741Z" fill="white"/>
<path d="M158.525 58.2548C158.223 57.6355 157.744 57.1115 157.144 56.7442C156.543 56.3769 155.847 56.1815 155.135 56.1809H102.035C101.954 56.1809 101.876 56.1846 101.795 56.1883C102.488 56.5521 103.072 57.081 103.49 57.7243L107.189 63.3821H155.135C155.765 63.3823 156.386 63.2294 156.938 62.9378C157.491 62.6461 157.958 62.225 158.296 61.7137C158.634 61.2023 158.833 60.6171 158.873 60.0124C158.913 59.4078 158.793 58.8032 158.525 58.2548Z" fill="white"/>
<path d="M158.845 71.9041C158.723 71.0414 158.28 70.2505 157.598 69.6776C156.916 69.1047 156.041 68.7885 155.135 68.7876H110.726L111.39 69.8042L115.436 75.9888H155.135C155.915 75.9904 156.676 75.7554 157.309 75.3173C157.795 74.9845 158.191 74.5449 158.464 74.035C158.738 73.5252 158.88 72.9599 158.88 72.3864C158.88 72.225 158.869 72.0638 158.845 71.9041Z" fill="white"/>
<path d="M201.231 45.9151L195.826 43.8857L168.876 33.7795L136.633 21.6885C135.321 21.1991 133.86 21.2296 132.571 21.7735C131.282 22.3173 130.27 23.3301 129.757 24.5897L128.629 27.3686L125.946 33.9688L122.046 43.5741L119.12 50.779L116.927 56.1809L114 63.3821L111.803 68.7876L111.741 68.9435L111.39 69.8042L115.436 75.9889L115.483 76.0594H190.428C191.116 76.0588 191.796 76.2064 192.417 76.4915C193.037 76.7766 193.584 77.1918 194.015 77.7066L194.332 76.9349L198.201 67.4149L204.247 52.5265C204.757 51.2654 204.727 49.8612 204.161 48.6219C203.596 47.3826 202.542 46.4092 201.231 45.9151Z" fill="#415078"/>
<path d="M171.764 45.8188L168.876 44.7354L139.757 33.8167C138.908 33.5009 137.963 33.5207 137.129 33.8717C136.295 34.2227 135.639 34.8765 135.305 35.6903C134.976 36.5066 134.997 37.415 135.363 38.2167C135.729 39.0183 136.411 39.648 137.259 39.968L146.876 43.5742L158.772 48.0337L168.876 51.8253L169.266 51.97C170.115 52.2866 171.059 52.2667 171.893 51.9147C172.726 51.5627 173.38 50.9073 173.711 50.0925C174.041 49.2778 174.022 48.3701 173.657 47.5688C173.293 46.7675 172.612 46.1381 171.764 45.8188Z" fill="white"/>
<path d="M183.378 67.5745L168.876 62.1355L158.525 58.2548L152.996 56.1809L138.594 50.779L133.915 49.0242C133.042 48.6967 132.073 48.6952 131.199 49.02C130.325 49.3448 129.609 49.9724 129.193 50.779C129.147 50.8718 129.1 50.9683 129.062 51.0684C128.883 51.5089 128.796 51.9789 128.806 52.4516C128.816 52.9244 128.922 53.3906 129.12 53.8237C129.318 54.2567 129.602 54.6481 129.957 54.9756C130.312 55.303 130.731 55.56 131.189 55.732L132.386 56.1809L151.583 63.3821L168.876 69.8673L180.652 74.286C181.085 74.4485 181.546 74.5316 182.011 74.5308C182.886 74.5323 183.733 74.2399 184.407 73.7043C185.081 73.1687 185.538 72.4236 185.7 71.5979C185.863 70.7723 185.719 69.9181 185.295 69.1834C184.871 68.4486 184.193 67.8794 183.378 67.5745H183.378Z" fill="white"/>
<path d="M168.876 75.6662L167.946 75.3174L158.845 71.9042L150.533 68.7877L136.116 63.3822L129.143 60.7666C128.684 60.5941 128.194 60.5103 127.702 60.5198C127.209 60.5293 126.724 60.632 126.272 60.8221C125.821 61.0121 125.413 61.2858 125.072 61.6274C124.731 61.969 124.464 62.3718 124.285 62.8129C124.106 63.2539 124.019 63.7245 124.03 64.1978C124.04 64.671 124.148 65.1377 124.346 65.5709C124.545 66.0042 124.83 66.3957 125.186 66.7229C125.542 67.0502 125.962 67.3068 126.421 67.4781L129.911 68.7877L147.324 75.3175L149.116 75.989L149.301 76.0595H169.923L168.876 75.6662Z" fill="white"/>
<path d="M133.652 75.9889L131.861 75.3174L124.374 72.5088C123.851 72.312 123.289 72.2308 122.729 72.2712C122.169 72.3117 121.625 72.4727 121.139 72.7425C120.652 73.0122 120.235 73.3837 119.918 73.8295C119.601 74.2752 119.393 74.7837 119.309 75.3174C119.272 75.5393 119.257 75.7642 119.266 75.9889C119.265 76.0124 119.267 76.036 119.27 76.0594H133.842L133.652 75.9889Z" fill="white"/>
<path d="M149.116 75.9889L147.324 75.3174H119.309C119.272 75.5393 119.257 75.7643 119.266 75.9889H115.436L115.483 76.0594H149.301L149.116 75.9889ZM149.116 75.9889H115.436L115.483 76.0594H149.301L149.116 75.9889ZM149.116 75.9889H115.436L115.483 76.0594H149.301L149.116 75.9889ZM149.301 76.0594L149.116 75.9889H115.436L115.483 76.0594H149.301ZM81.7297 150.353C80.5077 150.352 79.3362 149.884 78.472 149.054C77.6079 148.224 77.1216 147.098 77.1197 145.924V60.0839C77.1208 58.909 77.6067 57.7824 78.4709 56.9513C79.3351 56.1202 80.5071 55.6523 81.7297 55.6503H88.915V54.9083H81.7297C80.3024 54.9109 78.9344 55.4571 77.9255 56.4273C76.9166 57.3974 76.3492 58.7124 76.3475 60.0839V145.924C76.3488 146.916 76.6467 147.887 77.206 148.721C77.7653 149.555 78.5622 150.217 79.5019 150.628H147.525C147.463 150.539 147.401 150.446 147.34 150.353H81.7297ZM194.332 76.9349C193.83 76.4237 193.225 76.0165 192.554 75.7383C191.883 75.4601 191.159 75.3169 190.428 75.3174H115.911L111.741 68.9435L111.641 68.7876L108.104 63.3821L104.143 57.3273C103.657 56.5876 102.985 55.978 102.188 55.5551C101.392 55.1321 100.497 54.9097 99.5869 54.9083H81.7297C80.3024 54.9109 78.9344 55.4571 77.9255 56.4273C76.9166 57.3974 76.3492 58.7124 76.3475 60.0839V145.924C76.3488 146.916 76.6467 147.887 77.206 148.721C77.7653 149.555 78.5622 150.217 79.5019 150.628C80.2005 150.937 80.9607 151.096 81.7297 151.095H190.428C191.199 151.096 191.96 150.937 192.66 150.628C193.6 150.217 194.397 149.555 194.956 148.721C195.515 147.887 195.813 146.916 195.815 145.924V80.4929C195.815 79.1677 195.284 77.8932 194.332 76.9349ZM195.042 145.924C195.04 147.098 194.553 148.225 193.688 149.055C192.823 149.885 191.651 150.352 190.428 150.353H81.7297C80.5077 150.352 79.3362 149.884 78.472 149.054C77.6079 148.224 77.1216 147.098 77.1197 145.924V60.0839C77.1208 58.909 77.6067 57.7824 78.4709 56.9513C79.3351 56.1202 80.5071 55.6523 81.7297 55.6503H99.5869C100.367 55.6483 101.136 55.8377 101.819 56.2006C102.502 56.5636 103.077 57.088 103.49 57.7243L107.189 63.3821L110.726 68.7876L111.39 69.8042L115.436 75.9889L115.483 76.0594L190.428 76.0594C191.652 76.0604 192.825 76.5278 193.69 77.359C194.555 78.1902 195.041 79.3173 195.042 80.4929V145.924ZM149.116 75.9889H115.436L115.483 76.0594H149.301L149.116 75.9889ZM149.116 75.9889H115.436L115.483 76.0594H149.301L149.116 75.9889ZM149.116 75.9889H115.436L115.483 76.0594H149.301L149.116 75.9889ZM149.116 75.9889L147.324 75.3174H115.911L111.741 68.9435L111.39 69.8042L115.436 75.9889L115.483 76.0594H149.301L149.116 75.9889Z" fill="#3F3D56" fill-opacity="0.28"/>
<path d="M137.377 92.625V110H134.527V98.1L129.227 110H127.252L121.927 98.1V110H119.077V92.625H122.152L128.252 106.25L134.327 92.625H137.377ZM153.523 96.225L145.073 116.475H142.123L144.923 109.775L139.498 96.225H142.673L146.548 106.725L150.573 96.225H153.523ZM125.87 120.225L121.595 134H118.595L115.82 123.825L113.045 134H110.045L105.745 120.225H108.645L111.52 131.3L114.445 120.225H117.42L120.22 131.25L123.07 120.225H125.87ZM133.975 134.225C132.675 134.225 131.5 133.933 130.45 133.35C129.4 132.75 128.575 131.917 127.975 130.85C127.375 129.767 127.075 128.517 127.075 127.1C127.075 125.7 127.383 124.458 128 123.375C128.617 122.292 129.458 121.458 130.525 120.875C131.592 120.292 132.783 120 134.1 120C135.417 120 136.608 120.292 137.675 120.875C138.742 121.458 139.583 122.292 140.2 123.375C140.817 124.458 141.125 125.7 141.125 127.1C141.125 128.5 140.808 129.742 140.175 130.825C139.542 131.908 138.675 132.75 137.575 133.35C136.492 133.933 135.292 134.225 133.975 134.225ZM133.975 131.75C134.708 131.75 135.392 131.575 136.025 131.225C136.675 130.875 137.2 130.35 137.6 129.65C138 128.95 138.2 128.1 138.2 127.1C138.2 126.1 138.008 125.258 137.625 124.575C137.242 123.875 136.733 123.35 136.1 123C135.467 122.65 134.783 122.475 134.05 122.475C133.317 122.475 132.633 122.65 132 123C131.383 123.35 130.892 123.875 130.525 124.575C130.158 125.258 129.975 126.1 129.975 127.1C129.975 128.583 130.35 129.733 131.1 130.55C131.867 131.35 132.825 131.75 133.975 131.75ZM146.792 122.225C147.209 121.525 147.759 120.983 148.442 120.6C149.142 120.2 149.967 120 150.917 120V122.95H150.192C149.076 122.95 148.226 123.233 147.642 123.8C147.076 124.367 146.792 125.35 146.792 126.75V134H143.942V120.225H146.792V122.225ZM158.987 127.125L165.337 134H161.487L156.387 128.075V134H153.537V115.5H156.387V126.25L161.387 120.225H165.337L158.987 127.125Z" fill="#415078"/>
<path d="M137.377 92.625V110H134.527V98.1L129.227 110H127.252L121.927 98.1V110H119.077V92.625H122.152L128.252 106.25L134.327 92.625H137.377ZM153.523 96.225L145.073 116.475H142.123L144.923 109.775L139.498 96.225H142.673L146.548 106.725L150.573 96.225H153.523ZM125.87 120.225L121.595 134H118.595L115.82 123.825L113.045 134H110.045L105.745 120.225H108.645L111.52 131.3L114.445 120.225H117.42L120.22 131.25L123.07 120.225H125.87ZM133.975 134.225C132.675 134.225 131.5 133.933 130.45 133.35C129.4 132.75 128.575 131.917 127.975 130.85C127.375 129.767 127.075 128.517 127.075 127.1C127.075 125.7 127.383 124.458 128 123.375C128.617 122.292 129.458 121.458 130.525 120.875C131.592 120.292 132.783 120 134.1 120C135.417 120 136.608 120.292 137.675 120.875C138.742 121.458 139.583 122.292 140.2 123.375C140.817 124.458 141.125 125.7 141.125 127.1C141.125 128.5 140.808 129.742 140.175 130.825C139.542 131.908 138.675 132.75 137.575 133.35C136.492 133.933 135.292 134.225 133.975 134.225ZM133.975 131.75C134.708 131.75 135.392 131.575 136.025 131.225C136.675 130.875 137.2 130.35 137.6 129.65C138 128.95 138.2 128.1 138.2 127.1C138.2 126.1 138.008 125.258 137.625 124.575C137.242 123.875 136.733 123.35 136.1 123C135.467 122.65 134.783 122.475 134.05 122.475C133.317 122.475 132.633 122.65 132 123C131.383 123.35 130.892 123.875 130.525 124.575C130.158 125.258 129.975 126.1 129.975 127.1C129.975 128.583 130.35 129.733 131.1 130.55C131.867 131.35 132.825 131.75 133.975 131.75ZM146.792 122.225C147.209 121.525 147.759 120.983 148.442 120.6C149.142 120.2 149.967 120 150.917 120V122.95H150.192C149.076 122.95 148.226 123.233 147.642 123.8C147.076 124.367 146.792 125.35 146.792 126.75V134H143.942V120.225H146.792V122.225ZM158.987 127.125L165.337 134H161.487L156.387 128.075V134H153.537V115.5H156.387V126.25L161.387 120.225H165.337L158.987 127.125Z" fill="#415078"/>
</g>
<defs>
<clipPath id="clip0">
<rect width="300" height="151.37" fill="white"/>
</clipPath>
</defs>
</svg>
