<svg width="42" height="41" viewBox="0 0 42 41" fill="none" xmlns="http://www.w3.org/2000/svg">
<path d="M40.7333 15.1614L37 12.3302V5.02855C37 4.85175 36.9298 4.68219 36.8047 4.55717C36.6797 4.43215 36.5101 4.36192 36.3333 4.36192H26.498L21.4 0.495444C21.2841 0.407634 21.1427 0.360107 20.9973 0.360107C20.8519 0.360107 20.7105 0.407634 20.5947 0.495444L15.502 4.36192H5.66667C5.48986 4.36192 5.32029 4.43215 5.19526 4.55717C5.07024 4.68219 5 4.85175 5 5.02855V12.3308L1.26667 15.1614C1.18387 15.2235 1.11667 15.304 1.07038 15.3966C1.0241 15.4891 1 15.5912 1 15.6947V39.6935C1 39.8703 1.07024 40.0398 1.19526 40.1649C1.32029 40.2899 1.48986 40.3601 1.66667 40.3601H40.3333C40.5101 40.3601 40.6797 40.2899 40.8047 40.1649C40.9298 40.0398 41 39.8703 41 39.6935V15.6947C41 15.5912 40.9759 15.4891 40.9296 15.3966C40.8833 15.304 40.8161 15.2235 40.7333 15.1614ZM2.33333 17.0373L16.3827 27.6941L2.33333 38.3509V17.0373ZM21 25.8642L38.3513 39.0268H3.64867L21 25.8642ZM25.6173 27.6941L39.6667 17.0373V38.3509L25.6173 27.6941ZM39.23 15.6947L37 17.3859V14.0041L39.23 15.6947ZM21 1.86538L24.2913 4.36192H17.7087L21 1.86538ZM35.6667 5.69518V18.3972L24.514 26.8561L21.4 24.4942C21.2841 24.4064 21.1427 24.3589 20.9973 24.3589C20.8519 24.3589 20.7105 24.4064 20.5947 24.4942L17.4833 26.8548L6.33333 18.3972V5.69518H35.6667ZM5 17.3859L2.77 15.6947L5 14.0034V17.3859Z" fill="#415078" stroke="#415078" stroke-width="0.5"/>
<path d="M21 21.0281H23C23.1768 21.0281 23.3464 20.9579 23.4714 20.8328C23.5964 20.7078 23.6667 20.5382 23.6667 20.3614C23.6667 20.1846 23.5964 20.0151 23.4714 19.89C23.3464 19.765 23.1768 19.6948 23 19.6948H21C20.077 19.6948 19.1748 19.4211 18.4073 18.9083C17.6399 18.3956 17.0418 17.6667 16.6886 16.814C16.3354 15.9613 16.2429 15.023 16.423 14.1178C16.6031 13.2126 17.0475 12.3811 17.7002 11.7284C18.3528 11.0758 19.1843 10.6314 20.0896 10.4513C20.9948 10.2712 21.9331 10.3637 22.7859 10.7169C23.6386 11.0701 24.3674 11.6682 24.8802 12.4356C25.393 13.203 25.6667 14.1052 25.6667 15.0282V16.3615C25.6667 16.5383 25.5964 16.7079 25.4714 16.8329C25.3464 16.9579 25.1768 17.0282 25 17.0282C24.8232 17.0282 24.6536 16.9579 24.5286 16.8329C24.4036 16.7079 24.3333 16.5383 24.3333 16.3615V15.0282C24.337 14.2552 24.0732 13.5047 23.5866 12.904C23.1 12.3033 22.4205 11.8894 21.6635 11.7326C20.9066 11.5758 20.1186 11.6856 19.4334 12.0435C18.7482 12.4014 18.2079 12.9853 17.9041 13.6962C17.6003 14.4071 17.5518 15.2011 17.7668 15.9437C17.9818 16.6862 18.4471 17.3315 19.0837 17.7702C19.7202 18.2088 20.4889 18.4137 21.2594 18.3502C22.0298 18.2866 22.7546 17.9585 23.3107 17.4215C23.5403 17.7895 23.8836 18.0727 24.2886 18.2282C24.6936 18.3837 25.1382 18.403 25.5552 18.2832C25.9721 18.1634 26.3387 17.911 26.5994 17.5643C26.8601 17.2175 27.0007 16.7953 27 16.3615V15.0282C27 13.8415 26.6481 12.6815 25.9888 11.6949C25.3295 10.7082 24.3925 9.93915 23.2961 9.48504C22.1997 9.03092 20.9933 8.9121 19.8295 9.14361C18.6656 9.37512 17.5965 9.94655 16.7574 10.7856C15.9182 11.6247 15.3468 12.6938 15.1153 13.8577C14.8838 15.0216 15.0026 16.2279 15.4567 17.3243C15.9109 18.4206 16.6799 19.3577 17.6666 20.0169C18.6533 20.6762 19.8133 21.0281 21 21.0281V21.0281ZM21 17.0282C20.6044 17.0282 20.2178 16.9109 19.8889 16.6911C19.56 16.4714 19.3036 16.159 19.1522 15.7936C19.0009 15.4281 18.9613 15.026 19.0384 14.638C19.1156 14.2501 19.3061 13.8937 19.5858 13.614C19.8655 13.3343 20.2219 13.1438 20.6098 13.0667C20.9978 12.9895 21.3999 13.0291 21.7654 13.1805C22.1308 13.3319 22.4432 13.5882 22.6629 13.9171C22.8827 14.246 23 14.6327 23 15.0282C23 15.5586 22.7893 16.0673 22.4142 16.4424C22.0391 16.8175 21.5304 17.0282 21 17.0282Z" fill="#415078" stroke="#415078" stroke-width="0.5"/>
</svg>
