<svg width="40" height="40" viewBox="0 0 40 40" fill="none" xmlns="http://www.w3.org/2000/svg">
<path d="M28.7483 40C27.4571 40 26.1768 39.7717 24.9249 39.3169C19.4097 37.3134 14.2904 34.0502 10.1202 29.8802C5.95007 25.7101 2.68692 20.5907 0.68349 15.0755C0.0396884 13.303 -0.150304 11.4734 0.118982 9.63726C0.371237 7.91733 1.03746 6.24763 2.0457 4.80863C3.05839 3.3633 4.40849 2.16116 5.94999 1.33221C7.59383 0.448263 9.38805 0 11.283 0C11.8723 0 12.3817 0.41178 12.5052 0.988006L14.4671 10.1438C14.556 10.5584 14.4286 10.9898 14.1288 11.2896L10.7764 14.642C13.9389 20.9297 19.0705 26.0614 25.3583 29.2239L28.7106 25.8714C29.0105 25.5717 29.4419 25.4444 29.8564 25.5331L39.0122 27.495C39.5885 27.6186 40.0002 28.1279 40.0002 28.7173C40.0002 30.6122 39.552 32.4065 38.6679 34.0503C37.839 35.5918 36.6369 36.9419 35.1915 37.9546C33.7526 38.9629 32.0829 39.6291 30.3629 39.8813C29.8239 39.9605 29.2851 39.9999 28.7483 40ZM10.2843 2.55458C7.78476 2.83051 5.56626 4.14061 4.09304 6.24326C2.43639 8.60762 2.05007 11.5157 3.03316 14.222C6.88488 24.8252 15.1752 33.1155 25.7784 36.9672C28.4846 37.9503 31.3927 37.5641 33.7571 35.9074C35.8598 34.4341 37.1699 32.2156 37.4458 29.7161L29.9976 28.1201L26.4965 31.6212C26.1239 31.9938 25.5579 32.0927 25.0812 31.8687C17.6447 28.3751 11.6253 22.3556 8.1317 14.9192C7.90773 14.4425 8.00663 13.8764 8.37919 13.5039L11.8803 10.0028L10.2843 2.55458Z" fill="#415078"/>
</svg>
