<svg width="362" height="469" viewBox="0 0 362 469" fill="none" xmlns="http://www.w3.org/2000/svg">
<path d="M355.123 439.239H23.6767C21.4142 439.236 19.245 438.078 17.6452 436.02C16.0453 433.961 15.1454 431.171 15.1428 428.26V165.31C15.1447 163.177 15.8039 161.133 16.976 159.625C18.1481 158.117 19.7372 157.269 21.3948 157.266H357.297C358.983 157.269 360.6 158.131 361.792 159.666C362.985 161.2 363.655 163.28 363.657 165.449V428.26C363.655 431.171 362.755 433.961 361.155 436.02C359.555 438.078 357.386 439.236 355.123 439.239Z" fill="#F2F2F2"/>
<path d="M355.266 469H26.7339C21.918 469 18 463.754 18 457.306V186.672C18 181.891 20.9033 178 24.472 178H357.421C361.049 178 364 181.955 364 186.815V457.306C364 463.754 360.082 469 355.266 469Z" fill="white"/>
<path d="M364 169H15V162.94C15.0033 159.773 15.9081 156.738 17.5161 154.499C19.124 152.261 21.3036 151.003 23.5769 151H355.423C357.696 151.003 359.876 152.261 361.484 154.499C363.092 156.738 363.997 159.773 364 162.94V169Z" fill="#3F3D56"/>
<path d="M27.9114 160.23C28.8815 160.23 29.6679 159.175 29.6679 157.874C29.6679 156.573 28.8815 155.518 27.9114 155.518C26.9412 155.518 26.1548 156.573 26.1548 157.874C26.1548 159.175 26.9412 160.23 27.9114 160.23Z" fill="white"/>
<path d="M34.5789 160.23C35.549 160.23 36.3355 159.175 36.3355 157.874C36.3355 156.573 35.549 155.518 34.5789 155.518C33.6087 155.518 32.8223 156.573 32.8223 157.874C32.8223 159.175 33.6087 160.23 34.5789 160.23Z" fill="white"/>
<path d="M41.2463 160.23C42.2165 160.23 43.003 159.175 43.003 157.874C43.003 156.573 42.2165 155.518 41.2463 155.518C40.2762 155.518 39.4897 156.573 39.4897 157.874C39.4897 159.175 40.2762 160.23 41.2463 160.23Z" fill="white"/>
<path d="M345.735 450.35H285.392C284.492 450.35 283.63 449.857 282.993 448.981C282.357 448.104 282 446.915 282 445.675C282 444.435 282.357 443.246 282.993 442.369C283.63 441.493 284.492 441 285.392 441H345.735C346.634 441 347.497 441.493 348.133 442.369C348.77 443.246 349.127 444.435 349.127 445.675C349.127 446.915 348.77 448.104 348.133 448.981C347.497 449.857 346.634 450.35 345.735 450.35Z" fill="#CCCCCC"/>
<path d="M341.735 201.35H281.392C280.492 201.35 279.63 200.857 278.993 199.981C278.357 199.104 278 197.915 278 196.675C278 195.435 278.357 194.246 278.993 193.369C279.63 192.493 280.492 192 281.392 192H341.735C342.634 192 343.497 192.493 344.133 193.369C344.77 194.246 345.127 195.435 345.127 196.675C345.127 197.915 344.77 199.104 344.133 199.981C343.497 200.857 342.634 201.35 341.735 201.35Z" fill="#CCCCCC"/>
<path d="M294.731 432.35H234.388C233.489 432.348 232.627 431.855 231.992 430.979C231.357 430.102 231 428.914 231 427.675C231 426.436 231.357 425.248 231.992 424.371C232.627 423.495 233.489 423.002 234.388 423H294.731C295.177 422.999 295.618 423.12 296.03 423.354C296.442 423.589 296.817 423.933 297.132 424.367C297.447 424.801 297.698 425.317 297.868 425.885C298.039 426.452 298.127 427.061 298.127 427.675C298.127 428.289 298.039 428.898 297.868 429.465C297.698 430.033 297.447 430.549 297.132 430.983C296.817 431.417 296.442 431.761 296.03 431.996C295.618 432.23 295.177 432.351 294.731 432.35Z" fill="#CCCCCC"/>
<path d="M336.527 432.35H319.391C318.492 432.35 317.629 431.857 316.993 430.981C316.357 430.104 316 428.915 316 427.675C316 426.435 316.357 425.246 316.993 424.369C317.629 423.493 318.492 423 319.391 423H336.527C337.427 423 338.289 423.493 338.926 424.369C339.562 425.246 339.919 426.435 339.919 427.675C339.919 428.915 339.562 430.104 338.926 430.981C338.289 431.857 337.427 432.35 336.527 432.35Z" fill="#CCCCCC"/>
<path d="M255.026 450H234.969C233.917 450 232.907 449.631 232.163 448.975C231.418 448.319 231 447.428 231 446.5C231 445.572 231.418 444.681 232.163 444.025C232.907 443.369 233.917 443 234.969 443H255.026C255.547 442.999 256.064 443.09 256.546 443.265C257.028 443.441 257.466 443.699 257.836 444.024C258.205 444.349 258.498 444.735 258.697 445.16C258.897 445.585 259 446.04 259 446.5C259 446.96 258.897 447.415 258.697 447.84C258.498 448.265 258.205 448.651 257.836 448.976C257.466 449.301 257.028 449.559 256.546 449.735C256.064 449.91 255.547 450.001 255.026 450Z" fill="#CCCCCC"/>
<path d="M171.059 348C170.043 348.003 169.067 347.548 168.343 346.736L150.337 326.513C149.983 326.116 149.702 325.643 149.511 325.122C149.319 324.6 149.221 324.041 149.221 323.476C149.221 322.911 149.319 322.351 149.511 321.83C149.702 321.309 149.983 320.836 150.337 320.439L168.27 300.298C169.018 299.462 170.024 298.996 171.072 299C172.119 299.004 173.123 299.477 173.866 300.318C174.609 301.165 175.026 302.313 175.026 303.509C175.026 304.706 174.609 305.854 173.866 306.701L160.539 321.858C160.124 322.331 159.891 322.972 159.891 323.641C159.891 324.309 160.124 324.951 160.539 325.424L173.793 340.498C174.335 341.113 174.703 341.896 174.853 342.749C175.002 343.602 174.926 344.486 174.633 345.289C174.34 346.093 173.844 346.779 173.208 347.262C172.572 347.744 171.824 348.001 171.059 348V348Z" fill="#415078"/>
<path d="M199.998 348C199.228 348.001 198.474 347.744 197.834 347.262C197.193 346.779 196.693 346.093 196.398 345.289C196.103 344.486 196.026 343.602 196.177 342.749C196.327 341.896 196.699 341.113 197.244 340.498L210.597 325.424C211.015 324.951 211.25 324.309 211.25 323.641C211.25 322.972 211.015 322.331 210.597 321.858L197.171 306.701C196.8 306.282 196.505 305.784 196.304 305.237C196.103 304.689 196 304.102 196 303.509C196 302.917 196.103 302.33 196.304 301.782C196.505 301.234 196.8 300.737 197.171 300.318C197.919 299.477 198.931 299.004 199.986 299C201.041 298.996 202.055 299.463 202.808 300.298L220.876 320.439C221.232 320.836 221.515 321.309 221.708 321.83C221.901 322.352 222 322.911 222 323.476C222 324.041 221.901 324.6 221.708 325.122C221.515 325.643 221.232 326.116 220.876 326.513L202.735 346.736C202.006 347.548 201.022 348.003 199.998 348Z" fill="#415078"/>
</svg>
