<svg width="140" height="49" viewBox="0 0 140 49" fill="none" xmlns="http://www.w3.org/2000/svg">
<rect width="140" height="49" rx="10" fill="#C0AC9F"/>
<path d="M13.634 18.436C14.954 18.436 16.112 18.694 17.108 19.21C18.116 19.726 18.89 20.464 19.43 21.424C19.982 22.372 20.258 23.476 20.258 24.736C20.258 25.996 19.982 27.1 19.43 28.048C18.89 28.984 18.116 29.71 17.108 30.226C16.112 30.742 14.954 31 13.634 31H9.242V18.436H13.634ZM13.544 28.858C14.864 28.858 15.884 28.498 16.604 27.778C17.324 27.058 17.684 26.044 17.684 24.736C17.684 23.428 17.324 22.408 16.604 21.676C15.884 20.932 14.864 20.56 13.544 20.56H11.762V28.858H13.544ZM26.5723 31.162C25.6123 31.162 24.7483 30.952 23.9803 30.532C23.2123 30.1 22.6063 29.494 22.1623 28.714C21.7303 27.934 21.5143 27.034 21.5143 26.014C21.5143 24.994 21.7363 24.094 22.1803 23.314C22.6363 22.534 23.2543 21.934 24.0343 21.514C24.8143 21.082 25.6843 20.866 26.6443 20.866C27.6043 20.866 28.4743 21.082 29.2543 21.514C30.0343 21.934 30.6463 22.534 31.0903 23.314C31.5463 24.094 31.7743 24.994 31.7743 26.014C31.7743 27.034 31.5403 27.934 31.0723 28.714C30.6163 29.494 29.9923 30.1 29.2003 30.532C28.4203 30.952 27.5443 31.162 26.5723 31.162ZM26.5723 28.966C27.0283 28.966 27.4543 28.858 27.8503 28.642C28.2583 28.414 28.5823 28.078 28.8223 27.634C29.0623 27.19 29.1823 26.65 29.1823 26.014C29.1823 25.066 28.9303 24.34 28.4263 23.836C27.9343 23.32 27.3283 23.062 26.6083 23.062C25.8883 23.062 25.2823 23.32 24.7903 23.836C24.3103 24.34 24.0703 25.066 24.0703 26.014C24.0703 26.962 24.3043 27.694 24.7723 28.21C25.2523 28.714 25.8523 28.966 26.5723 28.966ZM47.4469 21.028L44.5309 31H41.8129L39.9949 24.034L38.1769 31H35.4409L32.5069 21.028H35.0629L36.8269 28.624L38.7349 21.028H41.3989L43.2709 28.606L45.0349 21.028H47.4469ZM54.3364 20.884C55.5244 20.884 56.4844 21.262 57.2164 22.018C57.9484 22.762 58.3144 23.806 58.3144 25.15V31H55.7944V25.492C55.7944 24.7 55.5964 24.094 55.2004 23.674C54.8044 23.242 54.2644 23.026 53.5804 23.026C52.8844 23.026 52.3324 23.242 51.9244 23.674C51.5284 24.094 51.3304 24.7 51.3304 25.492V31H48.8104V21.028H51.3304V22.27C51.6664 21.838 52.0924 21.502 52.6084 21.262C53.1364 21.01 53.7124 20.884 54.3364 20.884ZM63.2308 17.68V31H60.7108V17.68H63.2308ZM70.1485 31.162C69.1885 31.162 68.3245 30.952 67.5565 30.532C66.7885 30.1 66.1825 29.494 65.7385 28.714C65.3065 27.934 65.0905 27.034 65.0905 26.014C65.0905 24.994 65.3125 24.094 65.7565 23.314C66.2125 22.534 66.8305 21.934 67.6105 21.514C68.3905 21.082 69.2605 20.866 70.2205 20.866C71.1805 20.866 72.0505 21.082 72.8305 21.514C73.6105 21.934 74.2225 22.534 74.6665 23.314C75.1225 24.094 75.3505 24.994 75.3505 26.014C75.3505 27.034 75.1165 27.934 74.6485 28.714C74.1925 29.494 73.5685 30.1 72.7765 30.532C71.9965 30.952 71.1205 31.162 70.1485 31.162ZM70.1485 28.966C70.6045 28.966 71.0305 28.858 71.4265 28.642C71.8345 28.414 72.1585 28.078 72.3985 27.634C72.6385 27.19 72.7585 26.65 72.7585 26.014C72.7585 25.066 72.5065 24.34 72.0025 23.836C71.5105 23.32 70.9045 23.062 70.1845 23.062C69.4645 23.062 68.8585 23.32 68.3665 23.836C67.8865 24.34 67.6465 25.066 67.6465 26.014C67.6465 26.962 67.8805 27.694 68.3485 28.21C68.8285 28.714 69.4285 28.966 70.1485 28.966ZM76.551 25.978C76.551 24.97 76.749 24.076 77.145 23.296C77.553 22.516 78.099 21.916 78.783 21.496C79.479 21.076 80.253 20.866 81.105 20.866C81.849 20.866 82.497 21.016 83.049 21.316C83.613 21.616 84.063 21.994 84.399 22.45V21.028H86.937V31H84.399V29.542C84.075 30.01 83.625 30.4 83.049 30.712C82.485 31.012 81.831 31.162 81.087 31.162C80.247 31.162 79.479 30.946 78.783 30.514C78.099 30.082 77.553 29.476 77.145 28.696C76.749 27.904 76.551 26.998 76.551 25.978ZM84.399 26.014C84.399 25.402 84.279 24.88 84.039 24.448C83.799 24.004 83.475 23.668 83.067 23.44C82.659 23.2 82.221 23.08 81.753 23.08C81.285 23.08 80.853 23.194 80.457 23.422C80.061 23.65 79.737 23.986 79.485 24.43C79.245 24.862 79.125 25.378 79.125 25.978C79.125 26.578 79.245 27.106 79.485 27.562C79.737 28.006 80.061 28.348 80.457 28.588C80.865 28.828 81.297 28.948 81.753 28.948C82.221 28.948 82.659 28.834 83.067 28.606C83.475 28.366 83.799 28.03 84.039 27.598C84.279 27.154 84.399 26.626 84.399 26.014ZM88.7502 25.978C88.7502 24.97 88.9482 24.076 89.3442 23.296C89.7523 22.516 90.3043 21.916 91.0003 21.496C91.6963 21.076 92.4703 20.866 93.3223 20.866C93.9703 20.866 94.5883 21.01 95.1763 21.298C95.7643 21.574 96.2323 21.946 96.5803 22.414V17.68H99.1363V31H96.5803V29.524C96.2683 30.016 95.8303 30.412 95.2663 30.712C94.7023 31.012 94.0483 31.162 93.3043 31.162C92.4643 31.162 91.6963 30.946 91.0003 30.514C90.3043 30.082 89.7523 29.476 89.3442 28.696C88.9482 27.904 88.7502 26.998 88.7502 25.978ZM96.5983 26.014C96.5983 25.402 96.4783 24.88 96.2383 24.448C95.9983 24.004 95.6743 23.668 95.2663 23.44C94.8583 23.2 94.4203 23.08 93.9523 23.08C93.4843 23.08 93.0523 23.194 92.6562 23.422C92.2603 23.65 91.9363 23.986 91.6843 24.43C91.4443 24.862 91.3243 25.378 91.3243 25.978C91.3243 26.578 91.4443 27.106 91.6843 27.562C91.9363 28.006 92.2603 28.348 92.6562 28.588C93.0643 28.828 93.4963 28.948 93.9523 28.948C94.4203 28.948 94.8583 28.834 95.2663 28.606C95.6743 28.366 95.9983 28.03 96.2383 27.598C96.4783 27.154 96.5983 26.626 96.5983 26.014ZM105.275 24.7C105.275 23.464 105.551 22.36 106.103 21.388C106.667 20.404 107.429 19.642 108.389 19.102C109.361 18.55 110.447 18.274 111.647 18.274C113.051 18.274 114.281 18.634 115.337 19.354C116.393 20.074 117.131 21.07 117.551 22.342H114.653C114.365 21.742 113.957 21.292 113.429 20.992C112.913 20.692 112.313 20.542 111.629 20.542C110.897 20.542 110.243 20.716 109.667 21.064C109.103 21.4 108.659 21.88 108.335 22.504C108.023 23.128 107.867 23.86 107.867 24.7C107.867 25.528 108.023 26.26 108.335 26.896C108.659 27.52 109.103 28.006 109.667 28.354C110.243 28.69 110.897 28.858 111.629 28.858C112.313 28.858 112.913 28.708 113.429 28.408C113.957 28.096 114.365 27.64 114.653 27.04H117.551C117.131 28.324 116.393 29.326 115.337 30.046C114.293 30.754 113.063 31.108 111.647 31.108C110.447 31.108 109.361 30.838 108.389 30.298C107.429 29.746 106.667 28.984 106.103 28.012C105.551 27.04 105.275 25.936 105.275 24.7ZM130.989 18.436L126.381 31H123.321L118.713 18.436H121.413L124.869 28.426L128.307 18.436H130.989Z" fill="white"/>
</svg>
