<svg width="36" height="36" viewBox="0 0 36 36" fill="none" xmlns="http://www.w3.org/2000/svg">
<path d="M18.3562 0.336914C8.69214 0.336914 0.856201 8.37597 0.856201 18.2822C0.856201 26.2119 5.87182 32.9306 12.8249 35.3056C12.9225 35.3268 13.022 35.3373 13.1218 35.3369C13.7703 35.3369 14.0203 34.8603 14.0203 34.4463C14.0203 34.0166 14.0046 32.8916 13.9968 31.3916C13.4179 31.5273 12.8257 31.598 12.2312 31.6025C8.86401 31.6025 8.09839 28.9853 8.09839 28.9853C7.30151 26.915 6.15307 26.3603 6.15307 26.3603C4.62964 25.29 6.14526 25.2588 6.26245 25.2588H6.27026C8.02807 25.415 8.94995 27.1182 8.94995 27.1182C9.82495 28.6494 10.9968 29.0791 12.0437 29.0791C12.7359 29.0652 13.4174 28.9055 14.0437 28.6103C14.1999 27.4541 14.6531 26.665 15.1531 26.2119C11.2703 25.7588 7.18432 24.2197 7.18432 17.3447C7.18432 15.3838 7.86401 13.7822 8.9812 12.5322C8.80151 12.0791 8.19995 10.251 9.15307 7.78222C9.28092 7.75163 9.41232 7.73849 9.5437 7.74316C10.1765 7.74316 11.6062 7.98535 13.9656 9.62597C16.8324 8.82387 19.8644 8.82387 22.7312 9.62597C25.0906 7.98535 26.5203 7.74316 27.1531 7.74316C27.2844 7.73849 27.4158 7.75163 27.5437 7.78222C28.4968 10.251 27.8953 12.0791 27.7156 12.5322C28.8328 13.79 29.5124 15.3916 29.5124 17.3447C29.5124 24.2353 25.4187 25.751 21.5203 26.1963C22.1453 26.751 22.7078 27.8447 22.7078 29.5166C22.7078 31.915 22.6843 33.8525 22.6843 34.4385C22.6843 34.8603 22.9265 35.3369 23.5749 35.3369C23.6799 35.3374 23.7846 35.3269 23.8874 35.3056C30.8484 32.9306 35.8562 26.2041 35.8562 18.2822C35.8562 8.37597 28.0203 0.336914 18.3562 0.336914Z" fill="#FF4500"/>
</svg>
