<svg width="35" height="36" viewBox="0 0 35 36" fill="none" xmlns="http://www.w3.org/2000/svg">
<path d="M29.8716 5.62841C23.0344 -1.20892 11.9667 -1.21002 5.12844 5.62841C-1.70897 12.4657 -1.70999 23.5333 5.12844 30.3716C11.9656 37.209 23.0333 37.21 29.8716 30.3716C36.709 23.5343 36.7099 12.4668 29.8716 5.62841ZM29.1403 27.8776C28.3229 27.1466 27.4484 26.4997 26.5267 25.9422C27.1359 23.8378 27.4969 21.5221 27.5822 19.115H32.7261C32.4935 22.3596 31.2468 25.4033 29.1403 27.8776ZM2.27389 19.115H7.41777C7.50308 21.5221 7.864 23.8378 8.4732 25.9422C7.55151 26.4997 6.67709 27.1466 5.85963 27.8776C3.75314 25.4033 2.50653 22.3596 2.27389 19.115ZM5.85969 8.12245C6.67715 8.85344 7.55158 9.50034 8.47327 10.0578C7.86407 12.1622 7.50315 14.4779 7.41784 16.8851H2.27389C2.50653 13.6405 3.75314 10.5968 5.85969 8.12245ZM16.3851 10.2883C14.5667 10.1582 12.8134 9.71037 11.188 8.97153C12.1333 6.53726 13.876 3.61762 16.3851 2.89408V10.2883ZM16.3851 12.5224V16.8851H9.64864C9.72582 14.8489 10.0143 12.8935 10.4942 11.1045C12.3413 11.9119 14.3278 12.3942 16.3851 12.5224ZM16.3851 19.115V23.4777C14.3278 23.6059 12.3413 24.0882 10.4942 24.8956C10.0143 23.1066 9.72582 21.1512 9.64864 19.115H16.3851ZM16.3851 25.7118V33.1059C13.8762 32.3824 12.1335 29.4631 11.188 27.0286C12.8134 26.2897 14.5667 25.8419 16.3851 25.7118ZM18.6149 25.7118C20.4333 25.8419 22.1866 26.2897 23.812 27.0286C22.8666 29.4629 21.124 32.3824 18.6149 33.1059V25.7118ZM18.6149 23.4777V19.115H25.3514C25.2742 21.1512 24.9857 23.1066 24.5058 24.8956C22.6587 24.0882 20.6722 23.6059 18.6149 23.4777ZM18.6149 16.8851V12.5224C20.6722 12.3942 22.6587 11.9119 24.5058 11.1045C24.9857 12.8935 25.2742 14.8489 25.3514 16.8851H18.6149ZM18.6149 10.2883V2.89415C21.124 3.61769 22.8667 6.53733 23.812 8.9716C22.1866 9.71037 20.4333 10.1582 18.6149 10.2883ZM23.623 4.00729C25.0502 4.63227 26.3817 5.47971 27.5753 6.53118C27.0071 7.03212 26.4076 7.48634 25.7816 7.89254C25.2257 6.51608 24.5155 5.17843 23.623 4.00729ZM9.21832 7.89254C8.59232 7.48634 7.99289 7.03212 7.42467 6.53118C8.61828 5.47971 9.94979 4.63227 11.377 4.00729C10.4844 5.17856 9.77425 6.51622 9.21832 7.89254ZM9.21839 28.1076C9.77425 29.4839 10.4845 30.8217 11.3771 31.9928C9.94986 31.3678 8.61834 30.5204 7.42474 29.4689C7.99289 28.968 8.59239 28.5138 9.21839 28.1076ZM25.7816 28.1076C26.4076 28.5138 27.0071 28.968 27.5753 29.4688C26.3817 30.5203 25.0502 31.3678 23.623 31.9927C24.5155 30.8217 25.2257 29.484 25.7816 28.1076ZM27.5822 16.8851C27.4969 14.478 27.136 12.1622 26.5268 10.0579C27.4485 9.50041 28.3229 8.8535 29.1404 8.12252C31.2469 10.5968 32.4935 13.6405 32.7261 16.8851H27.5822Z" fill="#0D6EFD"/>
</svg>
