<svg width="25" height="29" viewBox="0 0 25 29" fill="none" xmlns="http://www.w3.org/2000/svg">
<path d="M4.21038 11.4409C4.21038 10.5083 3.45438 9.7522 2.52181 9.7522C1.58925 9.7522 0.833252 10.5083 0.833252 11.4409V18.6555C0.833252 19.5881 1.58925 20.3442 2.52181 20.3442C3.45438 20.3442 4.21038 19.5881 4.21038 18.6555V11.4409Z" fill="white"/>
<path d="M24.1669 11.4409C24.1669 10.5083 23.4109 9.7522 22.4784 9.7522C21.5458 9.7522 20.7898 10.5083 20.7898 11.4409V18.6555C20.7898 19.5881 21.5458 20.3442 22.4784 20.3442C23.4109 20.3442 24.1669 19.5881 24.1669 18.6555V11.4409Z" fill="white"/>
<path d="M4.82471 10.0587H20.1757V20.9391C20.1757 21.4734 19.9635 21.9857 19.5857 22.3635C19.2079 22.7413 18.6956 22.9535 18.1613 22.9535H6.8391C6.30485 22.9535 5.79248 22.7413 5.41471 22.3635C5.03694 21.9857 4.82471 21.4734 4.82471 20.9391V10.0587Z" fill="white"/>
<path d="M7.89478 22.6467H11.2719V26.6379C11.2719 27.0858 11.094 27.5153 10.7773 27.832C10.4606 28.1487 10.031 28.3266 9.58317 28.3266C9.13535 28.3266 8.7059 28.1486 8.38927 27.8319C8.07265 27.5152 7.89478 27.0857 7.89478 26.6379V22.6467Z" fill="white"/>
<path d="M13.7283 22.6467H17.1054V26.6379C17.1054 27.0858 16.9275 27.5153 16.6108 27.832C16.2941 28.1487 15.8645 28.3266 15.4167 28.3266C14.9688 28.3266 14.5394 28.1486 14.2228 27.8319C13.9061 27.5152 13.7283 27.0857 13.7283 26.6379V22.6467Z" fill="white"/>
<path d="M12.5002 2.46021C16.6969 2.46021 20.0988 5.64227 20.0988 9.56765H4.90161C4.90161 5.64227 8.30358 2.46021 12.5002 2.46021Z" fill="white"/>
<path d="M8.95412 6.83548C9.33571 6.83548 9.64505 6.52614 9.64505 6.14455C9.64505 5.76296 9.33571 5.45361 8.95412 5.45361C8.57253 5.45361 8.26318 5.76296 8.26318 6.14455C8.26318 6.52614 8.57253 6.83548 8.95412 6.83548Z" fill="#28A745"/>
<path d="M16.0156 6.83548C16.3972 6.83548 16.7066 6.52614 16.7066 6.14455C16.7066 5.76296 16.3972 5.45361 16.0156 5.45361C15.634 5.45361 15.3247 5.76296 15.3247 6.14455C15.3247 6.52614 15.634 6.83548 16.0156 6.83548Z" fill="#28A745"/>
<path d="M7.97983 1.0499C7.91814 0.9386 7.77791 0.898385 7.66661 0.960076C7.55531 1.02177 7.5151 1.162 7.57679 1.2733L8.84247 3.55674C8.90416 3.66804 9.04439 3.70825 9.15569 3.64656C9.26699 3.58487 9.3072 3.44463 9.24551 3.33334L7.97983 1.0499Z" fill="white"/>
<path d="M17.4278 1.28317C17.4933 1.17414 17.4581 1.03264 17.349 0.96713C17.24 0.901618 17.0985 0.936897 17.033 1.04593L15.6889 3.28283C15.6234 3.39186 15.6587 3.53335 15.7677 3.59886C15.8768 3.66437 16.0182 3.62909 16.0838 3.52006L17.4278 1.28317Z" fill="white"/>
</svg>
