<svg width="83" height="152" viewBox="0 0 83 152" fill="none" xmlns="http://www.w3.org/2000/svg">
<path d="M47.5993 23.245C51.8885 23.245 55.3655 18.8471 55.3655 13.422C55.3655 7.99686 51.8885 3.59894 47.5993 3.59894C43.3101 3.59894 39.833 7.99686 39.833 13.422C39.833 18.8471 43.3101 23.245 47.5993 23.245Z" fill="#FFB8B8"/>
<path d="M21.3572 131.135L23.3236 135.361L37.1455 127.778L34.2431 121.542L21.3572 131.135Z" fill="#FFB8B8"/>
<path d="M21.9465 129.245L25.8192 137.567L25.8193 137.567C26.1434 138.264 26.3559 139.034 26.4446 139.834C26.5333 140.635 26.4965 141.449 26.3363 142.232C26.1761 143.014 25.8957 143.749 25.511 144.394C25.1263 145.039 24.6449 145.582 24.0943 145.992L23.958 146.093L17.6174 132.469L21.9465 129.245Z" fill="#2F2E41"/>
<path d="M44.1417 146.358L48.0184 146.358L49.8625 127.445L44.1411 127.446L44.1417 146.358Z" fill="#FFB8B8"/>
<path d="M43.1531 144.757L50.7874 144.757H50.7877C51.4266 144.757 52.0593 144.916 52.6496 145.225C53.2399 145.534 53.7762 145.988 54.228 146.559C54.6798 147.131 55.0381 147.809 55.2826 148.556C55.5271 149.302 55.653 150.102 55.653 150.91V151.11L43.1533 151.111L43.1531 144.757Z" fill="#2F2E41"/>
<path d="M28.5567 134.9C28.3336 134.9 28.1136 134.834 27.9146 134.706C27.7155 134.579 27.5429 134.394 27.4108 134.167L23.6721 127.744C23.5581 127.548 23.4766 127.325 23.4327 127.088C23.3887 126.851 23.3832 126.606 23.4164 126.366C23.4497 126.126 23.521 125.898 23.626 125.694C23.7311 125.49 23.8677 125.315 24.0277 125.18L40.6644 111.126L30.626 77.7406L52.0927 79.9813L52.8158 108.671C52.8836 111.283 52.3885 113.87 51.3834 116.154C50.3784 118.439 48.9011 120.334 47.1099 121.638L29.2677 134.658C29.0516 134.816 28.8064 134.9 28.5567 134.9Z" fill="#2F2E41"/>
<path d="M44.2588 142.519C43.8907 142.518 43.5371 142.336 43.2724 142.013C43.0077 141.689 42.8525 141.248 42.8394 140.783L42.0527 112.834L51.7944 112.185L51.0187 140.334C51.0073 140.78 50.865 141.205 50.6194 141.525C50.3739 141.846 50.0428 142.039 49.6908 142.067L44.3555 142.515C44.3232 142.517 44.2909 142.519 44.2588 142.519Z" fill="#2F2E41"/>
<path d="M54.5772 85.5313C52.0987 85.5313 43.4417 82.0052 40.4363 80.7483C39.9867 81.2034 37.5167 83.5394 34.6336 83.1125C32.8547 82.8484 31.2886 81.5748 29.9788 79.3267C27.0865 74.3618 30.6589 53.0699 34.165 36.0824C34.8679 32.6487 36.596 29.6934 38.9858 27.8377C41.3757 25.9821 44.2413 25.3706 46.9803 26.1319C48.9654 26.6862 50.789 27.9296 52.2462 29.7226C53.7034 31.5156 54.7364 33.787 55.2292 36.2816C55.8893 39.6803 55.3215 43.6782 54.9068 46.5977C54.7119 47.9702 54.5579 49.0544 54.6106 49.5871C54.8141 51.6462 55.9446 83.9389 55.2177 85.318C55.1402 85.4649 54.9164 85.5313 54.5772 85.5313Z" fill="#C0AC9F"/>
<path d="M45.5099 85.5885C45.9083 85.2134 46.2367 84.7324 46.4722 84.1794C46.7077 83.6264 46.8444 83.0148 46.8728 82.3877C46.9012 81.7606 46.8205 81.1333 46.6365 80.5499C46.4525 79.9665 46.1695 79.4413 45.8077 79.0111L45.9611 39.8793L38.6743 41.414L40.8148 79.3968C40.2838 80.2136 40.0081 81.2485 40.0401 82.3052C40.072 83.3619 40.4093 84.3672 40.988 85.1304C41.5668 85.8936 42.3467 86.3618 43.1802 86.4462C44.0136 86.5306 44.8425 86.2255 45.5099 85.5885Z" fill="#FFB8B8"/>
<path d="M47.1955 65.01H39.3468C38.972 65.0086 38.6126 64.8208 38.3464 64.4871C38.0802 64.1534 37.9284 63.7006 37.9239 63.2266L37.7312 36.3136C37.7245 35.383 37.8638 34.46 38.1409 33.5979C38.4181 32.7358 38.8276 31.9518 39.3458 31.2912C39.864 30.6306 40.4807 30.1064 41.1601 29.7491C41.8394 29.3919 42.5681 29.2085 43.3039 29.2096C44.0396 29.2107 44.7679 29.3964 45.4466 29.7558C46.1253 30.1152 46.7409 30.6412 47.2579 31.3034C47.7748 31.9656 48.1828 32.7509 48.4583 33.6139C48.7338 34.4768 48.8713 35.4003 48.8628 36.3308L48.6183 63.2309C48.6128 63.7041 48.4605 64.1556 48.1945 64.4883C47.9284 64.8211 47.5697 65.0084 47.1955 65.01Z" fill="#C0AC9F"/>
<path d="M45.6218 23.2041C42.0661 23.2124 38.7115 19.6574 38.0953 15.2279C37.8747 13.4878 37.9742 11.7068 38.386 10.0232C38.8331 8.10659 39.5999 6.3335 40.6347 4.82347C41.6695 3.31343 42.9482 2.10153 44.3846 1.26947C45.821 0.43742 47.3818 0.00454719 48.9617 3.56329e-05C50.5416 -0.00447593 52.1039 0.419477 53.5433 1.24332C54.4945 1.78776 55.4314 2.56971 55.867 3.76993C56.3026 4.97014 56.03 6.64764 55.0772 7.1877C54.4545 7.54061 53.6731 7.36731 53.1208 7.87389C52.3273 8.60154 52.5316 10.1501 52.8859 11.3059C53.2401 12.4616 53.6409 13.8603 53.047 14.8463C52.4935 15.7651 51.3873 15.7366 50.516 15.3908C49.6446 15.0449 48.7846 14.4658 47.8761 14.5836C46.5511 14.7554 45.5989 16.4224 45.4226 18.0923C45.2464 19.7622 45.6613 21.4314 46.0709 23.0345L45.6218 23.2041Z" fill="#2F2E41"/>
<path d="M81.8964 151.487H0.316202C0.23234 151.487 0.151913 151.445 0.0926133 151.37C0.0333138 151.295 0 151.194 0 151.088C0 150.981 0.0333138 150.88 0.0926133 150.805C0.151913 150.73 0.23234 150.688 0.316202 150.688H81.8964C81.9803 150.688 82.0607 150.73 82.12 150.805C82.1793 150.88 82.2126 150.981 82.2126 151.088C82.2126 151.194 82.1793 151.295 82.12 151.37C82.0607 151.445 81.9803 151.487 81.8964 151.487Z" fill="#CCCCCC"/>
</svg>
