<svg width="380" height="469" viewBox="0 0 380 469" fill="none" xmlns="http://www.w3.org/2000/svg">
<path d="M75.5991 23.245C79.8883 23.245 83.3654 18.8471 83.3654 13.422C83.3654 7.99686 79.8883 3.59894 75.5991 3.59894C71.31 3.59894 67.8329 7.99686 67.8329 13.422C67.8329 18.8471 71.31 23.245 75.5991 23.245Z" fill="#FFB8B8"/>
<path d="M49.3572 131.135L51.3236 135.361L65.1455 127.778L62.2431 121.542L49.3572 131.135Z" fill="#FFB8B8"/>
<path d="M49.9465 129.245L53.8192 137.567L53.8193 137.567C54.1434 138.264 54.3559 139.034 54.4446 139.834C54.5333 140.635 54.4965 141.449 54.3363 142.232C54.1761 143.014 53.8957 143.749 53.511 144.394C53.1263 145.039 52.6449 145.582 52.0943 145.992L51.958 146.093L45.6174 132.469L49.9465 129.245Z" fill="#2F2E41"/>
<path d="M72.1419 146.358L76.0185 146.358L77.8626 127.445L72.1412 127.446L72.1419 146.358Z" fill="#FFB8B8"/>
<path d="M71.1531 144.757L78.7874 144.757H78.7877C79.4266 144.757 80.0593 144.916 80.6496 145.225C81.2399 145.534 81.7762 145.988 82.228 146.559C82.6798 147.131 83.0381 147.809 83.2826 148.556C83.5271 149.302 83.653 150.102 83.653 150.91V151.11L71.1533 151.111L71.1531 144.757Z" fill="#2F2E41"/>
<path d="M56.5567 134.9C56.3336 134.9 56.1136 134.834 55.9146 134.706C55.7155 134.579 55.5429 134.394 55.4108 134.167L51.6721 127.744C51.5581 127.548 51.4766 127.325 51.4327 127.088C51.3887 126.851 51.3832 126.606 51.4164 126.366C51.4497 126.126 51.521 125.898 51.626 125.694C51.7311 125.49 51.8677 125.315 52.0277 125.18L68.6644 111.126L58.626 77.7406L80.0927 79.9813L80.8158 108.671C80.8836 111.283 80.3885 113.87 79.3834 116.154C78.3784 118.439 76.9011 120.334 75.1099 121.638L57.2677 134.658C57.0516 134.816 56.8064 134.9 56.5567 134.9Z" fill="#2F2E41"/>
<path d="M72.2589 142.519C71.8908 142.518 71.5372 142.336 71.2725 142.013C71.0079 141.689 70.8527 141.248 70.8396 140.783L70.0529 112.834L79.7945 112.185L79.0188 140.334C79.0074 140.78 78.8651 141.205 78.6196 141.525C78.374 141.846 78.0429 142.039 77.6909 142.067L72.3557 142.515C72.3233 142.517 72.291 142.519 72.2589 142.519Z" fill="#2F2E41"/>
<path d="M82.5771 85.5313C80.0986 85.5313 71.4415 82.0052 68.4362 80.7483C67.9866 81.2034 65.5166 83.5394 62.6335 83.1125C60.8545 82.8484 59.2884 81.5748 57.9787 79.3267C55.0864 74.3618 58.6587 53.0699 62.1649 36.0824C62.8678 32.6487 64.5958 29.6934 66.9857 27.8377C69.3756 25.9821 72.2412 25.3706 74.9801 26.1319V26.1319C76.9653 26.6862 78.7889 27.9296 80.2461 29.7226C81.7033 31.5156 82.7363 33.787 83.2291 36.2816C83.8892 39.6803 83.3214 43.6782 82.9067 46.5977C82.7118 47.9702 82.5578 49.0544 82.6105 49.5871C82.8139 51.6462 83.9444 83.9389 83.2175 85.318C83.1401 85.4649 82.9162 85.5313 82.5771 85.5313Z" fill="#C0AC9F"/>
<path d="M73.5099 85.5885C73.9083 85.2134 74.2367 84.7324 74.4722 84.1794C74.7077 83.6264 74.8444 83.0148 74.8728 82.3877C74.9012 81.7606 74.8205 81.1333 74.6365 80.5499C74.4525 79.9665 74.1695 79.4413 73.8077 79.0111L73.9611 39.8793L66.6743 41.414L68.8148 79.3968C68.2838 80.2136 68.0081 81.2485 68.0401 82.3052C68.072 83.3619 68.4093 84.3672 68.988 85.1304C69.5668 85.8936 70.3467 86.3618 71.1802 86.4462C72.0136 86.5306 72.8425 86.2255 73.5099 85.5885V85.5885Z" fill="#FFB8B8"/>
<path d="M75.1954 65.01H67.3467C66.9719 65.0086 66.6125 64.8208 66.3463 64.4871C66.08 64.1534 65.9283 63.7006 65.9237 63.2266L65.7311 36.3136C65.7244 35.383 65.8637 34.46 66.1408 33.5979C66.4179 32.7358 66.8275 31.9518 67.3457 31.2912C67.8639 30.6306 68.4806 30.1064 69.1599 29.7491C69.8393 29.3919 70.568 29.2085 71.3037 29.2096C72.0395 29.2107 72.7678 29.3964 73.4465 29.7558C74.1252 30.1152 74.7408 30.6412 75.2577 31.3034C75.7747 31.9656 76.1827 32.7509 76.4582 33.6139C76.7337 34.4768 76.8712 35.4003 76.8627 36.3308L76.6182 63.2309C76.6126 63.7041 76.4604 64.1556 76.1943 64.4883C75.9282 64.8211 75.5695 65.0084 75.1954 65.01Z" fill="#C0AC9F"/>
<path d="M73.6217 23.2041C70.0659 23.2124 66.7114 19.6574 66.0952 15.2279C65.8746 13.4878 65.974 11.7068 66.3859 10.0232C66.833 8.10659 67.5998 6.3335 68.6346 4.82347C69.6693 3.31343 70.948 2.10153 72.3845 1.26947C73.8209 0.43742 75.3817 0.00454719 76.9616 3.56329e-05C78.5415 -0.00447593 80.1038 0.419477 81.5431 1.24332C82.4944 1.78776 83.4313 2.56971 83.8669 3.76993C84.3024 4.97014 84.0298 6.64764 83.077 7.1877C82.4544 7.54061 81.673 7.36731 81.1206 7.87389C80.3272 8.60154 80.5314 10.1501 80.8857 11.3059C81.24 12.4616 81.6408 13.8603 81.0468 14.8463C80.4934 15.7651 79.3872 15.7366 78.5158 15.3908C77.6445 15.0449 76.7844 14.4658 75.876 14.5836C74.551 14.7554 73.5988 16.4224 73.4225 18.0923C73.2463 19.7622 73.6612 21.4314 74.0708 23.0345L73.6217 23.2041Z" fill="#2F2E41"/>
<path d="M109.896 151.487H28.3162C28.2323 151.487 28.1519 151.445 28.0926 151.37C28.0333 151.295 28 151.194 28 151.088C28 150.981 28.0333 150.88 28.0926 150.805C28.1519 150.73 28.2323 150.688 28.3162 150.688H109.896C109.98 150.688 110.061 150.73 110.12 150.805C110.179 150.88 110.213 150.981 110.213 151.088C110.213 151.194 110.179 151.295 110.12 151.37C110.061 151.445 109.98 151.487 109.896 151.487Z" fill="#CCCCCC"/>
<path d="M355.123 439.239H23.6767C21.4142 439.236 19.245 438.078 17.6452 436.02C16.0453 433.961 15.1454 431.171 15.1428 428.26V165.31C15.1447 163.177 15.8039 161.133 16.976 159.625C18.1481 158.117 19.7372 157.269 21.3948 157.266H357.297C358.983 157.269 360.6 158.131 361.792 159.666C362.985 161.2 363.655 163.28 363.657 165.449V428.26C363.655 431.171 362.755 433.961 361.155 436.02C359.555 438.078 357.386 439.236 355.123 439.239V439.239Z" fill="#F2F2F2"/>
<path d="M355.266 469H26.7339C21.918 469 18 463.754 18 457.306V186.672C18 181.891 20.9033 178 24.472 178H357.421C361.049 178 364 181.955 364 186.815V457.306C364 463.754 360.082 469 355.266 469Z" fill="white"/>
<path d="M364 169H15V162.94C15.0033 159.773 15.9081 156.738 17.5161 154.499C19.124 152.261 21.3036 151.003 23.5769 151H355.423C357.696 151.003 359.876 152.261 361.484 154.499C363.092 156.738 363.997 159.773 364 162.94V169Z" fill="#3F3D56"/>
<path d="M27.9112 160.23C28.8814 160.23 29.6678 159.175 29.6678 157.874C29.6678 156.573 28.8814 155.518 27.9112 155.518C26.9411 155.518 26.1547 156.573 26.1547 157.874C26.1547 159.175 26.9411 160.23 27.9112 160.23Z" fill="white"/>
<path d="M34.5789 160.23C35.549 160.23 36.3355 159.175 36.3355 157.874C36.3355 156.573 35.549 155.518 34.5789 155.518C33.6087 155.518 32.8223 156.573 32.8223 157.874C32.8223 159.175 33.6087 160.23 34.5789 160.23Z" fill="white"/>
<path d="M41.2463 160.23C42.2165 160.23 43.003 159.175 43.003 157.874C43.003 156.573 42.2165 155.518 41.2463 155.518C40.2762 155.518 39.4897 156.573 39.4897 157.874C39.4897 159.175 40.2762 160.23 41.2463 160.23Z" fill="white"/>
<path d="M345.735 450.35H285.392C284.492 450.35 283.63 449.857 282.993 448.981C282.357 448.104 282 446.915 282 445.675C282 444.435 282.357 443.246 282.993 442.369C283.63 441.493 284.492 441 285.392 441H345.735C346.634 441 347.497 441.493 348.133 442.369C348.77 443.246 349.127 444.435 349.127 445.675C349.127 446.915 348.77 448.104 348.133 448.981C347.497 449.857 346.634 450.35 345.735 450.35V450.35Z" fill="#CCCCCC"/>
<path d="M341.735 201.35H281.392C280.492 201.35 279.63 200.857 278.993 199.981C278.357 199.104 278 197.915 278 196.675C278 195.435 278.357 194.246 278.993 193.369C279.63 192.493 280.492 192 281.392 192H341.735C342.634 192 343.497 192.493 344.133 193.369C344.77 194.246 345.127 195.435 345.127 196.675C345.127 197.915 344.77 199.104 344.133 199.981C343.497 200.857 342.634 201.35 341.735 201.35V201.35Z" fill="#CCCCCC"/>
<path d="M294.731 432.35H234.388C233.489 432.348 232.627 431.855 231.992 430.979C231.357 430.102 231 428.914 231 427.675C231 426.436 231.357 425.248 231.992 424.371C232.627 423.495 233.489 423.002 234.388 423H294.731C295.177 422.999 295.618 423.12 296.03 423.354C296.442 423.589 296.817 423.933 297.132 424.367C297.447 424.801 297.698 425.317 297.868 425.885C298.039 426.452 298.127 427.061 298.127 427.675C298.127 428.289 298.039 428.898 297.868 429.465C297.698 430.033 297.447 430.549 297.132 430.983C296.817 431.417 296.442 431.761 296.03 431.996C295.618 432.23 295.177 432.351 294.731 432.35V432.35Z" fill="#CCCCCC"/>
<path d="M336.527 432.35H319.391C318.492 432.35 317.629 431.857 316.993 430.981C316.357 430.104 316 428.915 316 427.675C316 426.435 316.357 425.246 316.993 424.369C317.629 423.493 318.492 423 319.391 423H336.527C337.427 423 338.289 423.493 338.926 424.369C339.562 425.246 339.919 426.435 339.919 427.675C339.919 428.915 339.562 430.104 338.926 430.981C338.289 431.857 337.427 432.35 336.527 432.35Z" fill="#CCCCCC"/>
<path d="M255.026 450H234.969C233.917 450 232.907 449.631 232.163 448.975C231.418 448.319 231 447.428 231 446.5C231 445.572 231.418 444.681 232.163 444.025C232.907 443.369 233.917 443 234.969 443H255.026C255.547 442.999 256.064 443.09 256.546 443.265C257.028 443.441 257.466 443.699 257.836 444.024C258.205 444.349 258.498 444.735 258.697 445.16C258.897 445.585 259 446.04 259 446.5C259 446.96 258.897 447.415 258.697 447.84C258.498 448.265 258.205 448.651 257.836 448.976C257.466 449.301 257.028 449.559 256.546 449.735C256.064 449.91 255.547 450.001 255.026 450Z" fill="#CCCCCC"/>
<path d="M171.059 348C170.043 348.003 169.067 347.548 168.343 346.736L150.337 326.513C149.983 326.116 149.702 325.643 149.511 325.122C149.319 324.6 149.221 324.041 149.221 323.476C149.221 322.911 149.319 322.351 149.511 321.83C149.702 321.309 149.983 320.836 150.337 320.439L168.27 300.298C169.017 299.462 170.024 298.996 171.072 299C172.119 299.004 173.123 299.477 173.865 300.318C174.609 301.165 175.026 302.313 175.026 303.509C175.026 304.706 174.609 305.854 173.866 306.701L160.539 321.858C160.124 322.331 159.891 322.972 159.891 323.641C159.891 324.309 160.124 324.951 160.539 325.424L173.793 340.498C174.334 341.113 174.703 341.896 174.853 342.749C175.002 343.602 174.926 344.486 174.633 345.289C174.34 346.093 173.844 346.779 173.208 347.262C172.572 347.744 171.824 348.001 171.059 348V348Z" fill="#415078"/>
<path d="M199.998 348C199.228 348.001 198.474 347.744 197.834 347.262C197.193 346.779 196.693 346.093 196.398 345.289C196.103 344.486 196.026 343.602 196.177 342.749C196.327 341.896 196.699 341.113 197.244 340.498L210.597 325.424C211.015 324.951 211.25 324.309 211.25 323.641C211.25 322.972 211.015 322.331 210.597 321.858L197.171 306.701C196.8 306.282 196.505 305.784 196.304 305.237C196.103 304.689 196 304.102 196 303.509C196 302.917 196.103 302.33 196.304 301.782C196.505 301.234 196.8 300.737 197.171 300.318C197.919 299.477 198.931 299.004 199.986 299C201.041 298.996 202.055 299.463 202.808 300.298L220.876 320.439C221.232 320.836 221.515 321.309 221.708 321.83C221.901 322.352 222 322.911 222 323.476C222 324.041 221.901 324.6 221.708 325.122C221.515 325.643 221.232 326.116 220.876 326.513L202.735 346.736C202.006 347.548 201.022 348.003 199.998 348Z" fill="#415078"/>
</svg>
