<svg width="903" height="550" viewBox="0 0 903 550" fill="none" xmlns="http://www.w3.org/2000/svg">
<path d="M880.913 550H23.0869C17.2311 549.994 11.6171 547.78 7.47641 543.846C3.33574 539.911 1.00662 534.576 1 529.012V26.3764C1.00477 22.2998 2.71105 18.3915 5.7445 15.5089C8.77794 12.6263 12.8908 11.0047 17.1808 11H886.539C890.903 11.0047 895.087 12.6543 898.173 15.5867C901.259 18.5192 902.995 22.4951 903 26.6422V529.012C902.993 534.576 900.664 539.911 896.524 543.846C892.383 547.78 886.769 549.994 880.913 550V550Z" fill="#F2F2F2"/>
<path d="M853.72 525H53.2795C41.5459 525 32 516.545 32 506.154V69.9773C32 62.2704 39.0737 56 47.7686 56H858.97C867.809 56 875 62.3737 875 70.2075V506.154C875 516.545 865.454 525 853.72 525Z" fill="white"/>
<path d="M829.798 106H773.201C770.231 106 767.381 105.104 765.281 103.51C763.18 101.916 762 99.7543 762 97.5C762 95.2456 763.18 93.0836 765.281 91.4896C767.381 89.8955 770.231 89 773.201 89H829.798C832.769 89 835.619 89.8955 837.719 91.4896C839.82 93.0836 841 95.2456 841 97.5C841 99.7543 839.82 101.916 837.719 103.51C835.619 105.104 832.769 106 829.798 106Z" fill="#CCCCCC"/>
<path d="M903 32H0V21.226C0.00850098 15.5968 2.34972 10.2006 6.51003 6.22132C10.6703 2.24205 16.31 0.0046677 22.1917 0H880.808C886.69 0.00462023 892.33 2.24199 896.49 6.22126C900.65 10.2005 902.991 15.5967 903 21.226V32Z" fill="#3F3D56"/>
<path d="M32.4541 16.7811C34.9688 16.7811 37.0074 14.8636 37.0074 12.4983C37.0074 10.1329 34.9688 8.21545 32.4541 8.21545C29.9394 8.21545 27.9009 10.1329 27.9009 12.4983C27.9009 14.8636 29.9394 16.7811 32.4541 16.7811Z" fill="white"/>
<path d="M49.7371 16.7811C52.2518 16.7811 54.2904 14.8636 54.2904 12.4983C54.2904 10.1329 52.2518 8.21545 49.7371 8.21545C47.2224 8.21545 45.1838 10.1329 45.1838 12.4983C45.1838 14.8636 47.2224 16.7811 49.7371 16.7811Z" fill="white"/>
<path d="M67.0203 16.7811C69.535 16.7811 71.5736 14.8636 71.5736 12.4983C71.5736 10.1329 69.535 8.21545 67.0203 8.21545C64.5056 8.21545 62.467 10.1329 62.467 12.4983C62.467 14.8636 64.5056 16.7811 67.0203 16.7811Z" fill="white"/>
<path d="M831.207 482H674.793C672.461 482 670.224 481.104 668.575 479.51C666.926 477.916 666 475.754 666 473.5C666 471.246 666.926 469.084 668.575 467.49C670.224 465.896 672.461 465 674.793 465H831.207C833.539 465 835.776 465.896 837.425 467.49C839.074 469.084 840 471.246 840 473.5C840 475.754 839.074 477.916 837.425 479.51C835.776 481.104 833.539 482 831.207 482V482Z" fill="#CCCCCC"/>
<path d="M723.197 444H566.782C564.452 443.997 562.218 443.1 560.571 441.507C558.925 439.913 558 437.753 558 435.5C558 433.247 558.925 431.087 560.571 429.493C562.218 427.9 564.452 427.003 566.782 427H723.197C724.352 426.999 725.497 427.217 726.565 427.644C727.633 428.071 728.603 428.696 729.421 429.486C730.239 430.275 730.887 431.213 731.33 432.245C731.772 433.277 732 434.383 732 435.5C732 436.617 731.772 437.723 731.33 438.755C730.887 439.787 730.239 440.725 729.421 441.514C728.603 442.304 727.633 442.929 726.565 443.356C725.497 443.783 724.352 444.001 723.197 444V444Z" fill="#CCCCCC"/>
<path d="M832.209 444H787.791C785.459 444 783.223 443.104 781.575 441.51C779.926 439.916 779 437.754 779 435.5C779 433.246 779.926 431.084 781.575 429.49C783.223 427.896 785.459 427 787.791 427H832.209C834.54 427 836.777 427.896 838.425 429.49C840.074 431.084 841 433.246 841 435.5C841 437.754 840.074 439.916 838.425 441.51C836.777 443.104 834.54 444 832.209 444Z" fill="#CCCCCC"/>
<path d="M631.246 478.13H595.98C594.129 478.13 592.353 477.439 591.044 476.208C589.735 474.976 589 473.306 589 471.565C589 469.824 589.735 468.154 591.044 466.923C592.353 465.692 594.129 465 595.98 465H631.246C632.164 464.999 633.072 465.168 633.92 465.497C634.768 465.827 635.538 466.31 636.187 466.92C636.836 467.53 637.351 468.254 637.702 469.051C638.054 469.848 638.235 470.702 638.235 471.565C638.235 472.428 638.054 473.282 637.702 474.079C637.351 474.877 636.836 475.601 636.187 476.21C635.538 476.82 634.768 477.304 633.92 477.633C633.072 477.962 632.164 478.131 631.246 478.13Z" fill="#CCCCCC"/>
<path d="M403.509 330.422C400.874 330.427 398.343 329.454 396.468 327.712L349.793 284.359C348.877 283.508 348.149 282.494 347.653 281.376C347.156 280.259 346.901 279.06 346.901 277.848C346.901 276.637 347.156 275.438 347.653 274.32C348.149 273.202 348.877 272.189 349.793 271.337L396.28 228.159C398.216 226.369 400.825 225.37 403.541 225.378C406.256 225.386 408.858 226.401 410.783 228.202C412.709 230.018 413.791 232.479 413.791 235.045C413.791 237.61 412.709 240.071 410.783 241.887L376.24 274.379C375.163 275.394 374.559 276.768 374.559 278.202C374.559 279.635 375.163 281.01 376.24 282.024L410.596 314.34C411.998 315.657 412.954 317.336 413.342 319.165C413.729 320.993 413.531 322.888 412.772 324.611C412.013 326.333 410.728 327.805 409.079 328.839C407.43 329.874 405.491 330.425 403.509 330.422V330.422Z" fill="#415078"/>
<path d="M477.883 330.422C475.9 330.424 473.962 329.874 472.313 328.839C470.664 327.805 469.379 326.333 468.62 324.611C467.861 322.888 467.662 320.993 468.05 319.164C468.437 317.336 469.393 315.657 470.796 314.34L505.152 282.024C506.228 281.01 506.833 279.635 506.833 278.202C506.833 276.768 506.228 275.394 505.152 274.379L470.609 241.887C469.653 240.988 468.896 239.921 468.379 238.747C467.861 237.573 467.595 236.315 467.595 235.044C467.595 233.774 467.862 232.515 468.379 231.341C468.896 230.167 469.653 229.101 470.609 228.202V228.202C472.533 226.4 475.136 225.386 477.851 225.377C480.566 225.369 483.175 226.369 485.112 228.159L531.598 271.337C532.515 272.188 533.242 273.202 533.739 274.32C534.235 275.437 534.491 276.637 534.491 277.848C534.491 279.059 534.235 280.259 533.739 281.376C533.242 282.494 532.515 283.508 531.598 284.359L484.923 327.712C483.048 329.453 480.518 330.427 477.883 330.422Z" fill="#415078"/>
</svg>
