<svg width="347" height="318" viewBox="0 0 347 318" fill="none" xmlns="http://www.w3.org/2000/svg">
<path d="M340.123 288.239H8.67675C6.41419 288.236 4.24504 287.078 2.64517 285.02C1.04531 282.961 0.145379 280.171 0.142822 277.26V14.3101C0.144666 12.1775 0.803937 10.1329 1.976 8.62484C3.14806 7.11681 4.73719 6.26851 6.39477 6.26605H342.297C343.983 6.26852 345.6 7.13146 346.792 8.66556C347.985 10.1997 348.655 12.2796 348.657 14.4492V277.26C348.655 280.171 347.755 282.961 346.155 285.02C344.555 287.078 342.386 288.236 340.123 288.239Z" fill="#F2F2F2"/>
<path d="M340.266 318H11.7339C6.91799 318 3 312.754 3 306.306V35.6725C3 30.8906 5.90333 27 9.47205 27H342.421C346.049 27 349 30.9547 349 35.8153V306.306C349 312.754 345.082 318 340.266 318Z" fill="white"/>
<path d="M349 18H0V11.9396C0.00328554 8.77318 0.908143 5.73783 2.51606 3.49949C4.12397 1.26116 6.30363 0.00262558 8.57687 0H340.423C342.696 0.00259888 344.876 1.26112 346.484 3.49946C348.092 5.7378 348.997 8.77317 349 11.9396V18Z" fill="#3F3D56"/>
<path d="M12.9114 9.22959C13.8815 9.22959 14.6679 8.17497 14.6679 6.87404C14.6679 5.57311 13.8815 4.51849 12.9114 4.51849C11.9412 4.51849 11.1548 5.57311 11.1548 6.87404C11.1548 8.17497 11.9412 9.22959 12.9114 9.22959Z" fill="white"/>
<path d="M19.5789 9.22959C20.549 9.22959 21.3355 8.17497 21.3355 6.87404C21.3355 5.57311 20.549 4.51849 19.5789 4.51849C18.6087 4.51849 17.8223 5.57311 17.8223 6.87404C17.8223 8.17497 18.6087 9.22959 19.5789 9.22959Z" fill="white"/>
<path d="M26.2463 9.22959C27.2165 9.22959 28.003 8.17497 28.003 6.87404C28.003 5.57311 27.2165 4.51849 26.2463 4.51849C25.2762 4.51849 24.4897 5.57311 24.4897 6.87404C24.4897 8.17497 25.2762 9.22959 26.2463 9.22959Z" fill="white"/>
<path d="M330.735 299.35H270.392C269.492 299.35 268.63 298.857 267.993 297.981C267.357 297.104 267 295.915 267 294.675C267 293.435 267.357 292.246 267.993 291.369C268.63 290.493 269.492 290 270.392 290H330.735C331.634 290 332.497 290.493 333.133 291.369C333.77 292.246 334.127 293.435 334.127 294.675C334.127 295.915 333.77 297.104 333.133 297.981C332.497 298.857 331.634 299.35 330.735 299.35Z" fill="#CCCCCC"/>
<path d="M326.735 50.35H266.392C265.492 50.35 264.63 49.8575 263.993 48.9808C263.357 48.104 263 46.9149 263 45.675C263 44.4351 263.357 43.246 263.993 42.3693C264.63 41.4926 265.492 41 266.392 41H326.735C327.634 41 328.497 41.4926 329.133 42.3693C329.77 43.246 330.127 44.4351 330.127 45.675C330.127 46.9149 329.77 48.104 329.133 48.9808C328.497 49.8575 327.634 50.35 326.735 50.35Z" fill="#CCCCCC"/>
<path d="M279.731 281.35H219.388C218.489 281.348 217.627 280.855 216.992 279.979C216.357 279.102 216 277.914 216 276.675C216 275.436 216.357 274.248 216.992 273.371C217.627 272.495 218.489 272.002 219.388 272H279.731C280.177 271.999 280.618 272.12 281.03 272.354C281.442 272.589 281.817 272.933 282.132 273.367C282.447 273.801 282.698 274.317 282.868 274.885C283.039 275.452 283.127 276.061 283.127 276.675C283.127 277.289 283.039 277.898 282.868 278.465C282.698 279.033 282.447 279.549 282.132 279.983C281.817 280.417 281.442 280.761 281.03 280.996C280.618 281.23 280.177 281.351 279.731 281.35Z" fill="#CCCCCC"/>
<path d="M321.527 281.35H304.391C303.492 281.35 302.629 280.857 301.993 279.981C301.357 279.104 301 277.915 301 276.675C301 275.435 301.357 274.246 301.993 273.369C302.629 272.493 303.492 272 304.391 272H321.527C322.427 272 323.289 272.493 323.926 273.369C324.562 274.246 324.919 275.435 324.919 276.675C324.919 277.915 324.562 279.104 323.926 279.981C323.289 280.857 322.427 281.35 321.527 281.35Z" fill="#CCCCCC"/>
<path d="M240.026 299H219.969C218.917 299 217.907 298.631 217.163 297.975C216.418 297.319 216 296.428 216 295.5C216 294.572 216.418 293.681 217.163 293.025C217.907 292.369 218.917 292 219.969 292H240.026C240.547 291.999 241.064 292.09 241.546 292.265C242.028 292.441 242.466 292.699 242.836 293.024C243.205 293.349 243.498 293.735 243.697 294.16C243.897 294.585 244 295.04 244 295.5C244 295.96 243.897 296.415 243.697 296.84C243.498 297.265 243.205 297.651 242.836 297.976C242.466 298.301 242.028 298.559 241.546 298.735C241.064 298.91 240.547 299.001 240.026 299Z" fill="#CCCCCC"/>
<path d="M156.059 197C155.043 197.003 154.067 196.548 153.343 195.736L135.337 175.513C134.983 175.116 134.702 174.643 134.511 174.122C134.319 173.6 134.221 173.041 134.221 172.476C134.221 171.911 134.319 171.351 134.511 170.83C134.702 170.309 134.983 169.836 135.337 169.439L153.27 149.298C154.018 148.462 155.024 147.996 156.072 148C157.119 148.004 158.123 148.477 158.866 149.318C159.609 150.165 160.026 151.313 160.026 152.509C160.026 153.706 159.609 154.854 158.866 155.701L145.539 170.858C145.124 171.331 144.891 171.972 144.891 172.641C144.891 173.309 145.124 173.951 145.539 174.424L158.793 189.498C159.335 190.113 159.703 190.896 159.853 191.749C160.002 192.602 159.926 193.486 159.633 194.289C159.34 195.093 158.844 195.779 158.208 196.262C157.572 196.744 156.824 197.001 156.059 197V197Z" fill="#415078"/>
<path d="M184.998 197C184.228 197.001 183.474 196.744 182.834 196.262C182.193 195.779 181.693 195.093 181.398 194.289C181.103 193.486 181.026 192.602 181.177 191.749C181.327 190.896 181.699 190.113 182.244 189.498L195.597 174.424C196.015 173.951 196.25 173.309 196.25 172.641C196.25 171.972 196.015 171.331 195.597 170.858L182.171 155.701C181.8 155.282 181.505 154.784 181.304 154.237C181.103 153.689 181 153.102 181 152.509C181 151.917 181.103 151.33 181.304 150.782C181.505 150.234 181.8 149.737 182.171 149.318C182.919 148.477 183.931 148.004 184.986 148C186.041 147.996 187.055 148.463 187.808 149.298L205.876 169.439C206.232 169.836 206.515 170.309 206.708 170.83C206.901 171.352 207 171.911 207 172.476C207 173.041 206.901 173.6 206.708 174.122C206.515 174.643 206.232 175.116 205.876 175.513L187.735 195.736C187.006 196.548 186.022 197.003 184.998 197Z" fill="#415078"/>
</svg>
