<svg width="101" height="19" viewBox="0 0 101 19" fill="none" xmlns="http://www.w3.org/2000/svg">
<path d="M0.399609 9.275C0.399609 7.575 0.791276 6.05 1.57461 4.7C2.37461 3.35 3.44961 2.3 4.79961 1.55C6.16628 0.783332 7.65794 0.399999 9.27461 0.399999C11.1246 0.399999 12.7663 0.858332 14.1996 1.775C15.6496 2.675 16.6996 3.95833 17.3496 5.625H13.9246C13.4746 4.70833 12.8496 4.025 12.0496 3.575C11.2496 3.125 10.3246 2.9 9.27461 2.9C8.12461 2.9 7.09961 3.15833 6.19961 3.675C5.29961 4.19167 4.59128 4.93333 4.07461 5.9C3.57461 6.86667 3.32461 7.99167 3.32461 9.275C3.32461 10.5583 3.57461 11.6833 4.07461 12.65C4.59128 13.6167 5.29961 14.3667 6.19961 14.9C7.09961 15.4167 8.12461 15.675 9.27461 15.675C10.3246 15.675 11.2496 15.45 12.0496 15C12.8496 14.55 13.4746 13.8667 13.9246 12.95H17.3496C16.6996 14.6167 15.6496 15.9 14.1996 16.8C12.7663 17.7 11.1246 18.15 9.27461 18.15C7.64128 18.15 6.14961 17.775 4.79961 17.025C3.44961 16.2583 2.37461 15.2 1.57461 13.85C0.791276 12.5 0.399609 10.975 0.399609 9.275ZM26.6605 18.225C25.3605 18.225 24.1855 17.9333 23.1355 17.35C22.0855 16.75 21.2605 15.9167 20.6605 14.85C20.0605 13.7667 19.7605 12.5167 19.7605 11.1C19.7605 9.7 20.0689 8.45833 20.6855 7.375C21.3022 6.29167 22.1439 5.45833 23.2105 4.875C24.2772 4.29167 25.4689 4 26.7855 4C28.1022 4 29.2939 4.29167 30.3605 4.875C31.4272 5.45833 32.2689 6.29167 32.8855 7.375C33.5022 8.45833 33.8105 9.7 33.8105 11.1C33.8105 12.5 33.4939 13.7417 32.8605 14.825C32.2272 15.9083 31.3605 16.75 30.2605 17.35C29.1772 17.9333 27.9772 18.225 26.6605 18.225ZM26.6605 15.75C27.3939 15.75 28.0772 15.575 28.7105 15.225C29.3605 14.875 29.8855 14.35 30.2855 13.65C30.6855 12.95 30.8855 12.1 30.8855 11.1C30.8855 10.1 30.6939 9.25833 30.3105 8.575C29.9272 7.875 29.4189 7.35 28.7855 7C28.1522 6.65 27.4689 6.475 26.7355 6.475C26.0022 6.475 25.3189 6.65 24.6855 7C24.0689 7.35 23.5772 7.875 23.2105 8.575C22.8439 9.25833 22.6605 10.1 22.6605 11.1C22.6605 12.5833 23.0355 13.7333 23.7855 14.55C24.5522 15.35 25.5105 15.75 26.6605 15.75ZM43.5779 4C44.6613 4 45.6279 4.225 46.4779 4.675C47.3446 5.125 48.0196 5.79167 48.5029 6.675C48.9863 7.55833 49.2279 8.625 49.2279 9.875V18H46.4029V10.3C46.4029 9.06667 46.0946 8.125 45.4779 7.475C44.8613 6.80833 44.0196 6.475 42.9529 6.475C41.8863 6.475 41.0363 6.80833 40.4029 7.475C39.7863 8.125 39.4779 9.06667 39.4779 10.3V18H36.6279V4.225H39.4779V5.8C39.9446 5.23333 40.5363 4.79167 41.2529 4.475C41.9863 4.15833 42.7613 4 43.5779 4ZM56.1883 6.55V14.175C56.1883 14.6917 56.3049 15.0667 56.5383 15.3C56.7883 15.5167 57.2049 15.625 57.7883 15.625H59.5383V18H57.2883C56.0049 18 55.0216 17.7 54.3383 17.1C53.6549 16.5 53.3133 15.525 53.3133 14.175V6.55H51.6883V4.225H53.3133V0.799999H56.1883V4.225H59.5383V6.55H56.1883ZM61.215 11.05C61.215 9.66667 61.4984 8.44167 62.065 7.375C62.6484 6.30833 63.4317 5.48333 64.415 4.9C65.415 4.3 66.515 4 67.715 4C68.7984 4 69.74 4.21667 70.54 4.65C71.3567 5.06667 72.0067 5.59167 72.49 6.225V4.225H75.365V18H72.49V15.95C72.0067 16.6 71.3484 17.1417 70.515 17.575C69.6817 18.0083 68.7317 18.225 67.665 18.225C66.4817 18.225 65.3984 17.925 64.415 17.325C63.4317 16.7083 62.6484 15.8583 62.065 14.775C61.4984 13.675 61.215 12.4333 61.215 11.05ZM72.49 11.1C72.49 10.15 72.29 9.325 71.89 8.625C71.5067 7.925 70.9984 7.39167 70.365 7.025C69.7317 6.65833 69.0484 6.475 68.315 6.475C67.5817 6.475 66.8984 6.65833 66.265 7.025C65.6317 7.375 65.115 7.9 64.715 8.6C64.3317 9.28333 64.14 10.1 64.14 11.05C64.14 12 64.3317 12.8333 64.715 13.55C65.115 14.2667 65.6317 14.8167 66.265 15.2C66.915 15.5667 67.5984 15.75 68.315 15.75C69.0484 15.75 69.7317 15.5667 70.365 15.2C70.9984 14.8333 71.5067 14.3 71.89 13.6C72.29 12.8833 72.49 12.05 72.49 11.1ZM78.1584 11.1C78.1584 9.68333 78.4417 8.44167 79.0084 7.375C79.5917 6.29167 80.3917 5.45833 81.4084 4.875C82.4251 4.29167 83.5917 4 84.9084 4C86.5751 4 87.9501 4.4 89.0334 5.2C90.1334 5.98333 90.8751 7.10833 91.2584 8.575H88.1834C87.9334 7.89167 87.5334 7.35833 86.9834 6.975C86.4334 6.59167 85.7417 6.4 84.9084 6.4C83.7417 6.4 82.8084 6.81667 82.1084 7.65C81.4251 8.46667 81.0834 9.61667 81.0834 11.1C81.0834 12.5833 81.4251 13.7417 82.1084 14.575C82.8084 15.4083 83.7417 15.825 84.9084 15.825C86.5584 15.825 87.6501 15.1 88.1834 13.65H91.2584C90.8584 15.05 90.1084 16.1667 89.0084 17C87.9084 17.8167 86.5417 18.225 84.9084 18.225C83.5917 18.225 82.4251 17.9333 81.4084 17.35C80.3917 16.75 79.5917 15.9167 79.0084 14.85C78.4417 13.7667 78.1584 12.5167 78.1584 11.1ZM97.4236 6.55V14.175C97.4236 14.6917 97.5403 15.0667 97.7736 15.3C98.0236 15.5167 98.4403 15.625 99.0236 15.625H100.774V18H98.5236C97.2403 18 96.257 17.7 95.5736 17.1C94.8903 16.5 94.5486 15.525 94.5486 14.175V6.55H92.9236V4.225H94.5486V0.799999H97.4236V4.225H100.774V6.55H97.4236Z" fill="#415078"/>
</svg>
