<svg width="83" height="152" viewBox="0 0 83 152" fill="none" xmlns="http://www.w3.org/2000/svg">
<path d="M47.5991 23.245C51.8883 23.245 55.3654 18.8471 55.3654 13.422C55.3654 7.99686 51.8883 3.59894 47.5991 3.59894C43.31 3.59894 39.8329 7.99686 39.8329 13.422C39.8329 18.8471 43.31 23.245 47.5991 23.245Z" fill="#FFB8B8"/>
<path d="M21.3572 131.135L23.3236 135.361L37.1455 127.778L34.2431 121.542L21.3572 131.135Z" fill="#FFB8B8"/>
<path d="M21.9465 129.245L25.8192 137.567L25.8193 137.567C26.1434 138.264 26.3559 139.034 26.4446 139.834C26.5333 140.635 26.4965 141.449 26.3363 142.232C26.1761 143.014 25.8957 143.749 25.511 144.394C25.1263 145.039 24.6449 145.582 24.0943 145.992L23.958 146.093L17.6174 132.469L21.9465 129.245Z" fill="#2F2E41"/>
<path d="M44.1419 146.358L48.0185 146.358L49.8626 127.445L44.1412 127.446L44.1419 146.358Z" fill="#FFB8B8"/>
<path d="M43.1531 144.757L50.7874 144.757H50.7877C51.4266 144.757 52.0593 144.916 52.6496 145.225C53.2399 145.534 53.7762 145.988 54.228 146.559C54.6798 147.131 55.0381 147.809 55.2826 148.556C55.5271 149.302 55.653 150.102 55.653 150.91V151.11L43.1533 151.111L43.1531 144.757Z" fill="#2F2E41"/>
<path d="M28.5567 134.9C28.3336 134.9 28.1136 134.834 27.9146 134.706C27.7155 134.579 27.5429 134.394 27.4108 134.167L23.6721 127.744C23.5581 127.548 23.4766 127.325 23.4327 127.088C23.3887 126.851 23.3832 126.606 23.4164 126.366C23.4497 126.126 23.521 125.898 23.626 125.694C23.7311 125.49 23.8677 125.315 24.0277 125.18L40.6644 111.126L30.626 77.7406L52.0927 79.9813L52.8158 108.671C52.8836 111.283 52.3885 113.87 51.3834 116.154C50.3784 118.439 48.9011 120.334 47.1099 121.638L29.2677 134.658C29.0516 134.816 28.8064 134.9 28.5567 134.9Z" fill="#2F2E41"/>
<path d="M44.2589 142.519C43.8908 142.518 43.5372 142.336 43.2725 142.013C43.0079 141.689 42.8527 141.248 42.8396 140.783L42.0529 112.834L51.7945 112.185L51.0188 140.334C51.0074 140.78 50.8651 141.205 50.6196 141.525C50.374 141.846 50.0429 142.039 49.6909 142.067L44.3557 142.515C44.3233 142.517 44.291 142.519 44.2589 142.519Z" fill="#2F2E41"/>
<path d="M54.5771 85.5313C52.0986 85.5313 43.4415 82.0052 40.4362 80.7483C39.9866 81.2034 37.5166 83.5394 34.6335 83.1125C32.8545 82.8484 31.2884 81.5748 29.9787 79.3267C27.0864 74.3618 30.6587 53.0699 34.1649 36.0824C34.8678 32.6487 36.5958 29.6934 38.9857 27.8377C41.3756 25.9821 44.2412 25.3706 46.9801 26.1319V26.1319C48.9653 26.6862 50.7889 27.9296 52.2461 29.7226C53.7033 31.5156 54.7363 33.787 55.2291 36.2816C55.8892 39.6803 55.3214 43.6782 54.9067 46.5977C54.7118 47.9702 54.5578 49.0544 54.6105 49.5871C54.8139 51.6462 55.9444 83.9389 55.2175 85.318C55.1401 85.4649 54.9162 85.5313 54.5771 85.5313Z" fill="#C0AC9F"/>
<path d="M45.5099 85.5885C45.9083 85.2134 46.2367 84.7324 46.4722 84.1794C46.7077 83.6264 46.8444 83.0148 46.8728 82.3877C46.9012 81.7606 46.8205 81.1333 46.6365 80.5499C46.4525 79.9665 46.1695 79.4413 45.8077 79.0111L45.9611 39.8793L38.6743 41.414L40.8148 79.3968C40.2838 80.2136 40.0081 81.2485 40.0401 82.3052C40.072 83.3619 40.4093 84.3672 40.988 85.1304C41.5668 85.8936 42.3467 86.3618 43.1802 86.4462C44.0136 86.5306 44.8425 86.2255 45.5099 85.5885V85.5885Z" fill="#FFB8B8"/>
<path d="M47.1954 65.01H39.3467C38.9719 65.0086 38.6125 64.8208 38.3463 64.4871C38.08 64.1534 37.9283 63.7006 37.9237 63.2266L37.7311 36.3136C37.7244 35.383 37.8637 34.46 38.1408 33.5979C38.4179 32.7358 38.8275 31.9518 39.3457 31.2912C39.8639 30.6306 40.4806 30.1064 41.1599 29.7491C41.8393 29.3919 42.568 29.2085 43.3037 29.2096C44.0395 29.2107 44.7678 29.3964 45.4465 29.7558C46.1252 30.1152 46.7408 30.6412 47.2577 31.3034C47.7747 31.9656 48.1827 32.7509 48.4582 33.6139C48.7337 34.4768 48.8712 35.4003 48.8627 36.3308L48.6182 63.2309C48.6126 63.7041 48.4604 64.1556 48.1943 64.4883C47.9282 64.8211 47.5695 65.0084 47.1954 65.01Z" fill="#C0AC9F"/>
<path d="M45.6217 23.2041C42.0659 23.2124 38.7114 19.6574 38.0952 15.2279C37.8746 13.4878 37.974 11.7068 38.3859 10.0232C38.833 8.10659 39.5998 6.3335 40.6346 4.82347C41.6693 3.31343 42.948 2.10153 44.3845 1.26947C45.8209 0.43742 47.3817 0.00454719 48.9616 3.56329e-05C50.5415 -0.00447593 52.1038 0.419477 53.5431 1.24332C54.4944 1.78776 55.4313 2.56971 55.8669 3.76993C56.3024 4.97014 56.0298 6.64764 55.077 7.1877C54.4544 7.54061 53.673 7.36731 53.1206 7.87389C52.3272 8.60154 52.5314 10.1501 52.8857 11.3059C53.24 12.4616 53.6408 13.8603 53.0468 14.8463C52.4934 15.7651 51.3872 15.7366 50.5158 15.3908C49.6445 15.0449 48.7844 14.4658 47.876 14.5836C46.551 14.7554 45.5988 16.4224 45.4225 18.0923C45.2463 19.7622 45.6612 21.4314 46.0708 23.0345L45.6217 23.2041Z" fill="#2F2E41"/>
<path d="M81.8964 151.487H0.316202C0.23234 151.487 0.151913 151.445 0.0926133 151.37C0.0333138 151.295 0 151.194 0 151.088C0 150.981 0.0333138 150.88 0.0926133 150.805C0.151913 150.73 0.23234 150.688 0.316202 150.688H81.8964C81.9803 150.688 82.0607 150.73 82.12 150.805C82.1793 150.88 82.2126 150.981 82.2126 151.088C82.2126 151.194 82.1793 151.295 82.12 151.37C82.0607 151.445 81.9803 151.487 81.8964 151.487Z" fill="#CCCCCC"/>
</svg>
