<svg width="27" height="49" viewBox="0 0 27 49" fill="none" xmlns="http://www.w3.org/2000/svg">
<path d="M22.0594 48.9999C21.0428 49.0026 20.0665 48.5482 19.3431 47.7359L1.33652 27.513C0.983016 27.116 0.702344 26.6431 0.510779 26.1217C0.319214 25.6004 0.220581 25.041 0.220581 24.4759C0.220581 23.9109 0.319214 23.3515 0.510779 22.8301C0.702344 22.3088 0.983016 21.8359 1.33652 21.4388L19.2704 1.29749C20.0175 0.462465 21.024 -0.00376273 22.0715 -8.01363e-06C23.119 0.0037467 24.123 0.47718 24.8654 1.31755C25.6087 2.16471 26.026 3.31256 26.0261 4.50929C26.0261 5.70601 25.6087 6.85388 24.8655 7.70107L11.5392 22.8576C11.124 23.331 10.8908 23.9722 10.8908 24.6408C10.8908 25.3094 11.124 25.9507 11.5392 26.424L24.7932 41.4983C25.3345 42.1126 25.7032 42.8959 25.8527 43.7488C26.0021 44.6017 25.9256 45.4858 25.6328 46.2892C25.3401 47.0927 24.8442 47.7791 24.208 48.2617C23.5718 48.7443 22.8241 49.0012 22.0594 49V48.9999Z" fill="#415078"/>
</svg>
