<svg width="35" height="36" viewBox="0 0 35 36" fill="none" xmlns="http://www.w3.org/2000/svg">
<path d="M17.5 35.5C27.165 35.5 35 27.665 35 18C35 8.33502 27.165 0.5 17.5 0.5C7.83502 0.5 0 8.33502 0 18C0 27.665 7.83502 35.5 17.5 35.5Z" fill="#28A745"/>
<path d="M9.21038 14.4409C9.21038 13.5083 8.45438 12.7522 7.52181 12.7522C6.58925 12.7522 5.83325 13.5083 5.83325 14.4409V21.6555C5.83325 22.5881 6.58925 23.3442 7.52181 23.3442C8.45438 23.3442 9.21038 22.5881 9.21038 21.6555V14.4409Z" fill="white"/>
<path d="M29.1669 14.4409C29.1669 13.5083 28.4109 12.7522 27.4784 12.7522C26.5458 12.7522 25.7898 13.5083 25.7898 14.4409V21.6555C25.7898 22.5881 26.5458 23.3442 27.4784 23.3442C28.4109 23.3442 29.1669 22.5881 29.1669 21.6555V14.4409Z" fill="white"/>
<path d="M9.82471 13.0587H25.1757V23.9391C25.1757 24.4734 24.9635 24.9857 24.5857 25.3635C24.2079 25.7413 23.6956 25.9535 23.1613 25.9535H11.8391C11.3048 25.9535 10.7925 25.7413 10.4147 25.3635C10.0369 24.9857 9.82471 24.4734 9.82471 23.9391V13.0587Z" fill="white"/>
<path d="M12.8948 25.6467H16.2719V29.6379C16.2719 30.0858 16.094 30.5153 15.7773 30.832C15.4606 31.1487 15.031 31.3266 14.5832 31.3266C14.1353 31.3266 13.7059 31.1486 13.3893 30.8319C13.0726 30.5152 12.8948 30.0857 12.8948 29.6379V25.6467Z" fill="white"/>
<path d="M18.7283 25.6467H22.1054V29.6379C22.1054 30.0858 21.9275 30.5153 21.6108 30.832C21.2941 31.1487 20.8645 31.3266 20.4167 31.3266C19.9688 31.3266 19.5394 31.1486 19.2228 30.8319C18.9061 30.5152 18.7283 30.0857 18.7283 29.6379V25.6467Z" fill="white"/>
<path d="M17.5002 5.46021C21.6969 5.46021 25.0988 8.64227 25.0988 12.5676H9.90161C9.90161 8.64227 13.3036 5.46021 17.5002 5.46021Z" fill="white"/>
<path d="M13.9541 9.83548C14.3357 9.83548 14.6451 9.52614 14.6451 9.14455C14.6451 8.76296 14.3357 8.45361 13.9541 8.45361C13.5725 8.45361 13.2632 8.76296 13.2632 9.14455C13.2632 9.52614 13.5725 9.83548 13.9541 9.83548Z" fill="#28A745"/>
<path d="M21.0156 9.83548C21.3972 9.83548 21.7066 9.52614 21.7066 9.14455C21.7066 8.76296 21.3972 8.45361 21.0156 8.45361C20.634 8.45361 20.3247 8.76296 20.3247 9.14455C20.3247 9.52614 20.634 9.83548 21.0156 9.83548Z" fill="#28A745"/>
<path d="M12.9798 4.0499C12.9181 3.9386 12.7779 3.89839 12.6666 3.96008C12.5553 4.02177 12.5151 4.162 12.5768 4.2733L13.8425 6.55674C13.9042 6.66804 14.0444 6.70825 14.1557 6.64656C14.267 6.58487 14.3072 6.44463 14.2455 6.33334L12.9798 4.0499Z" fill="white"/>
<path d="M22.4278 4.28317C22.4933 4.17414 22.4581 4.03264 22.349 3.96713C22.24 3.90162 22.0985 3.9369 22.033 4.04593L20.6889 6.28283C20.6234 6.39186 20.6587 6.53335 20.7677 6.59886C20.8768 6.66437 21.0182 6.62909 21.0838 6.52006L22.4278 4.28317Z" fill="white"/>
</svg>
